<svg xmlns="http://www.w3.org/2000/svg" version="1.1" width="442" height="274">
<path d="M 2.878906 13.319336 L 2.878906 6.412109 L 6.729980 6.412109 L 6.729980 7.335938 L 3.738281 7.335938 L 3.738281 13.319336 Z " fill="rgb(0, 0, 0)" fill-opacity="1.000000" />
<path d="M 2.878906 26.319336 L 2.878906 12.300781 L 3.738281 12.300781 L 3.738281 26.319336 Z " fill="rgb(0, 0, 0)" fill-opacity="1.000000" />
<path d="M 2.878906 39.319336 L 2.878906 25.300781 L 3.738281 25.300781 L 3.738281 39.319336 Z " fill="rgb(0, 0, 0)" fill-opacity="1.000000" />
<path d="M 2.878906 52.319336 L 2.878906 38.300781 L 3.738281 38.300781 L 3.738281 52.319336 Z " fill="rgb(0, 0, 0)" fill-opacity="1.000000" />
<path d="M 2.878906 65.319336 L 2.878906 51.300781 L 3.738281 51.300781 L 3.738281 65.319336 Z " fill="rgb(0, 0, 0)" fill-opacity="1.000000" />
<path d="M 2.878906 78.319336 L 2.878906 64.300781 L 3.738281 64.300781 L 3.738281 78.319336 Z " fill="rgb(0, 0, 0)" fill-opacity="1.000000" />
<path d="M 2.878906 91.319336 L 2.878906 77.300781 L 3.738281 77.300781 L 3.738281 91.319336 Z " fill="rgb(0, 0, 0)" fill-opacity="1.000000" />
<path d="M 2.878906 104.319336 L 2.878906 90.300781 L 3.738281 90.300781 L 3.738281 104.319336 Z " fill="rgb(0, 0, 0)" fill-opacity="1.000000" />
<path d="M 2.878906 111.335938 L 2.878906 103.300781 L 3.738281 103.300781 L 3.738281 110.412109 L 6.729980 110.412109 L 6.729980 111.335938 Z " fill="rgb(0, 0, 0)" fill-opacity="1.000000" />
<path d="M 65.878906 195.319336 L 65.878906 188.412109 L 69.729980 188.412109 L 69.729980 189.335938 L 66.738281 189.335938 L 66.738281 195.319336 Z " fill="rgb(0, 0, 0)" fill-opacity="1.000000" />
<path d="M 65.878906 208.319336 L 65.878906 194.300781 L 66.738281 194.300781 L 66.738281 208.319336 Z " fill="rgb(0, 0, 0)" fill-opacity="1.000000" />
<path d="M 65.878906 221.319336 L 65.878906 207.300781 L 66.738281 207.300781 L 66.738281 221.319336 Z " fill="rgb(0, 0, 0)" fill-opacity="1.000000" />
<path d="M 65.878906 234.319336 L 65.878906 220.300781 L 66.738281 220.300781 L 66.738281 234.319336 Z " fill="rgb(0, 0, 0)" fill-opacity="1.000000" />
<path d="M 65.878906 247.319336 L 65.878906 233.300781 L 66.738281 233.300781 L 66.738281 247.319336 Z " fill="rgb(0, 0, 0)" fill-opacity="1.000000" />
<path d="M 65.878906 260.319336 L 65.878906 246.300781 L 66.738281 246.300781 L 66.738281 260.319336 Z " fill="rgb(0, 0, 0)" fill-opacity="1.000000" />
<path d="M 65.878906 267.335938 L 65.878906 259.300781 L 66.738281 259.300781 L 66.738281 266.412109 L 69.729980 266.412109 L 69.729980 267.335938 Z " fill="rgb(0, 0, 0)" fill-opacity="1.000000" />
<path d="M 69.892578 267.335938 L 69.892578 266.412109 L 76.729980 266.412109 L 76.729980 267.335938 Z " fill="rgb(0, 0, 0)" fill-opacity="1.000000" />
<path d="M 76.892578 267.335938 L 76.892578 266.412109 L 83.729980 266.412109 L 83.729980 267.335938 Z " fill="rgb(0, 0, 0)" fill-opacity="1.000000" />
<path d="M 83.892578 267.335938 L 83.892578 266.412109 L 90.729980 266.412109 L 90.729980 267.335938 Z " fill="rgb(0, 0, 0)" fill-opacity="1.000000" />
<path d="M 90.892578 267.335938 L 90.892578 266.412109 L 97.729980 266.412109 L 97.729980 267.335938 Z " fill="rgb(0, 0, 0)" fill-opacity="1.000000" />
<path d="M 97.892578 267.335938 L 97.892578 266.412109 L 104.729980 266.412109 L 104.729980 267.335938 Z " fill="rgb(0, 0, 0)" fill-opacity="1.000000" />
<path d="M 104.892578 267.335938 L 104.892578 266.412109 L 111.729980 266.412109 L 111.729980 267.335938 Z " fill="rgb(0, 0, 0)" fill-opacity="1.000000" />
<path d="M 111.892578 267.335938 L 111.892578 266.412109 L 118.729980 266.412109 L 118.729980 267.335938 Z " fill="rgb(0, 0, 0)" fill-opacity="1.000000" />
<path d="M 118.892578 267.335938 L 118.892578 266.412109 L 125.729980 266.412109 L 125.729980 267.335938 Z " fill="rgb(0, 0, 0)" fill-opacity="1.000000" />
<path d="M 125.892578 267.335938 L 125.892578 266.412109 L 132.729980 266.412109 L 132.729980 267.335938 Z " fill="rgb(0, 0, 0)" fill-opacity="1.000000" />
<path d="M 132.892578 267.335938 L 132.892578 266.412109 L 139.729980 266.412109 L 139.729980 267.335938 Z " fill="rgb(0, 0, 0)" fill-opacity="1.000000" />
<path d="M 139.892578 267.335938 L 139.892578 266.412109 L 146.729980 266.412109 L 146.729980 267.335938 Z " fill="rgb(0, 0, 0)" fill-opacity="1.000000" />
<path d="M 146.892578 267.335938 L 146.892578 266.412109 L 153.729980 266.412109 L 153.729980 267.335938 Z " fill="rgb(0, 0, 0)" fill-opacity="1.000000" />
<path d="M 153.892578 267.335938 L 153.892578 266.412109 L 160.729980 266.412109 L 160.729980 267.335938 Z " fill="rgb(0, 0, 0)" fill-opacity="1.000000" />
<path d="M 160.892578 267.335938 L 160.892578 266.412109 L 167.729980 266.412109 L 167.729980 267.335938 Z " fill="rgb(0, 0, 0)" fill-opacity="1.000000" />
<path d="M 167.892578 267.335938 L 167.892578 266.412109 L 174.729980 266.412109 L 174.729980 267.335938 Z " fill="rgb(0, 0, 0)" fill-opacity="1.000000" />
<path d="M 174.892578 267.335938 L 174.892578 266.412109 L 181.729980 266.412109 L 181.729980 267.335938 Z " fill="rgb(0, 0, 0)" fill-opacity="1.000000" />
<path d="M 181.892578 267.335938 L 181.892578 266.412109 L 188.729980 266.412109 L 188.729980 267.335938 Z " fill="rgb(0, 0, 0)" fill-opacity="1.000000" />
<path d="M 188.892578 267.335938 L 188.892578 266.412109 L 195.729980 266.412109 L 195.729980 267.335938 Z " fill="rgb(0, 0, 0)" fill-opacity="1.000000" />
<path d="M 195.892578 267.335938 L 195.892578 266.412109 L 198.878906 266.412109 L 198.878906 259.300781 L 199.738281 259.300781 L 199.738281 267.335938 Z " fill="rgb(0, 0, 0)" fill-opacity="1.000000" />
<path d="M 240.878906 267.335938 L 240.878906 259.300781 L 241.738281 259.300781 L 241.738281 266.412109 L 244.729980 266.412109 L 244.729980 267.335938 Z " fill="rgb(0, 150, 255)" fill-opacity="1.000000" />
<path d="M 244.892578 267.335938 L 244.892578 266.412109 L 251.729980 266.412109 L 251.729980 267.335938 Z " fill="rgb(0, 150, 255)" fill-opacity="1.000000" />
<path d="M 251.892578 267.335938 L 251.892578 266.412109 L 258.729980 266.412109 L 258.729980 267.335938 Z " fill="rgb(0, 150, 255)" fill-opacity="1.000000" />
<path d="M 258.892578 267.335938 L 258.892578 266.412109 L 265.729980 266.412109 L 265.729980 267.335938 Z " fill="rgb(0, 150, 255)" fill-opacity="1.000000" />
<path d="M 265.892578 267.335938 L 265.892578 266.412109 L 272.729980 266.412109 L 272.729980 267.335938 Z " fill="rgb(0, 150, 255)" fill-opacity="1.000000" />
<path d="M 272.892578 267.335938 L 272.892578 266.412109 L 279.729980 266.412109 L 279.729980 267.335938 Z " fill="rgb(0, 150, 255)" fill-opacity="1.000000" />
<path d="M 279.892578 267.335938 L 279.892578 266.412109 L 286.729980 266.412109 L 286.729980 267.335938 Z " fill="rgb(0, 150, 255)" fill-opacity="1.000000" />
<path d="M 286.892578 267.335938 L 286.892578 266.412109 L 293.729980 266.412109 L 293.729980 267.335938 Z " fill="rgb(0, 150, 255)" fill-opacity="1.000000" />
<path d="M 293.892578 267.335938 L 293.892578 266.412109 L 300.729980 266.412109 L 300.729980 267.335938 Z " fill="rgb(0, 150, 255)" fill-opacity="1.000000" />
<path d="M 300.892578 267.335938 L 300.892578 266.412109 L 307.729980 266.412109 L 307.729980 267.335938 Z " fill="rgb(0, 150, 255)" fill-opacity="1.000000" />
<path d="M 307.892578 267.335938 L 307.892578 266.412109 L 314.729980 266.412109 L 314.729980 267.335938 Z " fill="rgb(0, 150, 255)" fill-opacity="1.000000" />
<path d="M 314.892578 267.335938 L 314.892578 266.412109 L 321.729980 266.412109 L 321.729980 267.335938 Z " fill="rgb(0, 150, 255)" fill-opacity="1.000000" />
<path d="M 321.892578 267.335938 L 321.892578 266.412109 L 328.729980 266.412109 L 328.729980 267.335938 Z " fill="rgb(0, 150, 255)" fill-opacity="1.000000" />
<path d="M 328.892578 267.335938 L 328.892578 266.412109 L 331.878906 266.412109 L 331.878906 259.300781 L 332.738281 259.300781 L 332.738281 267.335938 Z " fill="rgb(0, 150, 255)" fill-opacity="1.000000" />
<path d="M 119.956055 222.980957 L 125.160645 222.980957 L 125.160645 223.808105 L 120.971191 230.086914 L 125.278809 230.086914 L 125.278809 231.000000 L 119.837891 231.000000 L 119.837891 230.172852 L 123.914551 223.894043 L 119.956055 223.894043 Z " fill="rgb(0, 0, 0)" fill-opacity="1.000000" />
<path d="M 198.878906 247.319336 L 198.878906 233.300781 L 199.738281 233.300781 L 199.738281 247.319336 Z " fill="rgb(0, 0, 0)" fill-opacity="1.000000" />
<path d="M 198.878906 260.319336 L 198.878906 246.300781 L 199.738281 246.300781 L 199.738281 260.319336 Z " fill="rgb(0, 0, 0)" fill-opacity="1.000000" />
<path d="M 207.592285 235.116211 Q 206.877930 236.340820 206.526123 237.557373 Q 206.174316 238.773926 206.174316 240.009277 Q 206.174316 241.239258 206.526123 242.458496 Q 206.877930 243.677734 207.592285 244.913086 L 206.732910 244.913086 Q 205.921875 243.634766 205.524414 242.423584 Q 205.126953 241.212402 205.126953 240.009277 Q 205.126953 238.811523 205.524414 237.597656 Q 205.921875 236.383789 206.732910 235.116211 Z " fill="rgb(0, 150, 255)" fill-opacity="1.000000" />
<path d="M 212.562012 248.202148 L 214.071289 250.221680 L 213.244141 250.221680 L 211.498535 248.202148 Z " fill="rgb(0, 150, 255)" fill-opacity="1.000000" />
<path d="M 216.892578 254.335938 L 216.892578 253.412109 L 223.729980 253.412109 L 223.729980 254.335938 Z " fill="rgb(0, 150, 255)" fill-opacity="1.000000" />
<path d="M 227.985352 248.631836 L 227.985352 251.978027 L 226.782227 251.978027 L 226.782227 248.631836 Z " fill="rgb(0, 150, 255)" fill-opacity="1.000000" />
<path d="M 240.878906 260.319336 L 240.878906 246.300781 L 241.738281 246.300781 L 241.738281 260.319336 Z " fill="rgb(0, 150, 255)" fill-opacity="1.000000" />
<path d="M 331.878906 260.319336 L 331.878906 246.300781 L 332.738281 246.300781 L 332.738281 260.319336 Z " fill="rgb(0, 150, 255)" fill-opacity="1.000000" />
<path d="M 210.193359 236.007812 L 211.643555 236.007812 L 213.029297 240.079102 L 214.425781 236.007812 L 215.881348 236.007812 L 215.881348 244.000000 L 214.876953 244.000000 L 214.876953 236.937012 L 213.448242 241.147949 L 212.626465 241.147949 L 211.192383 236.937012 L 211.192383 244.000000 L 210.193359 244.000000 Z " fill="rgb(0, 150, 255)" fill-opacity="1.000000" />
<path d="M 218.697266 238.005859 L 221.227051 238.005859 L 221.227051 243.231934 L 223.187500 243.231934 L 223.187500 244.000000 L 218.278320 244.000000 L 218.278320 243.231934 L 220.238770 243.231934 L 220.238770 238.773926 L 218.697266 238.773926 Z M 220.238770 235.669434 L 221.227051 235.669434 L 221.227051 236.915527 L 220.238770 236.915527 Z " fill="rgb(0, 150, 255)" fill-opacity="1.000000" />
<path d="M 229.698730 243.693848 Q 229.301270 243.924805 228.879639 244.040283 Q 228.458008 244.155762 228.017578 244.155762 Q 226.621094 244.155762 225.834229 243.317871 Q 225.047363 242.479980 225.047363 240.997559 Q 225.047363 239.515137 225.834229 238.677246 Q 226.621094 237.839355 228.017578 237.839355 Q 228.452637 237.839355 228.866211 237.952148 Q 229.279785 238.064941 229.698730 238.301270 L 229.698730 239.337891 Q 229.306641 238.988770 228.911865 238.833008 Q 228.517090 238.677246 228.017578 238.677246 Q 227.088379 238.677246 226.588867 239.278809 Q 226.089355 239.880371 226.089355 240.997559 Q 226.089355 242.109375 226.591553 242.713623 Q 227.093750 243.317871 228.017578 243.317871 Q 228.533203 243.317871 228.941406 243.159424 Q 229.349609 243.000977 229.698730 242.667969 Z " fill="rgb(0, 150, 255)" fill-opacity="1.000000" />
<path d="M 232.869141 235.116211 L 233.728516 235.116211 Q 234.539551 236.383789 234.937012 237.597656 Q 235.334473 238.811523 235.334473 240.009277 Q 235.334473 241.217773 234.937012 242.431641 Q 234.539551 243.645508 233.728516 244.913086 L 232.869141 244.913086 Q 233.583496 243.666992 233.935303 242.447754 Q 234.287109 241.228516 234.287109 240.009277 Q 234.287109 238.784668 233.935303 237.565430 Q 233.583496 236.346191 232.869141 235.116211 Z " fill="rgb(0, 150, 255)" fill-opacity="1.000000" />
<path d="M 240.878906 247.319336 L 240.878906 233.300781 L 241.738281 233.300781 L 241.738281 247.319336 Z " fill="rgb(0, 150, 255)" fill-opacity="1.000000" />
<path d="M 252.000000 235.980957 L 253.058105 235.980957 L 253.826172 242.490723 L 254.739258 238.183105 L 255.872559 238.183105 L 256.796387 242.501465 L 257.564453 235.980957 L 258.622559 235.980957 L 257.424805 244.000000 L 256.398926 244.000000 L 255.308594 239.235840 L 254.223633 244.000000 L 253.197754 244.000000 Z " fill="rgb(0, 150, 255)" fill-opacity="1.000000" />
<path d="M 264.645020 240.272461 L 264.645020 244.000000 L 263.651367 244.000000 L 263.651367 240.272461 Q 263.651367 239.461426 263.366699 239.080078 Q 263.082031 238.698730 262.475098 238.698730 Q 261.782227 238.698730 261.408936 239.190186 Q 261.035645 239.681641 261.035645 240.600098 L 261.035645 244.000000 L 260.047363 244.000000 L 260.047363 235.642578 L 261.035645 235.642578 L 261.035645 238.886719 Q 261.298828 238.371094 261.750000 238.105225 Q 262.201172 237.839355 262.818848 237.839355 Q 263.737305 237.839355 264.191162 238.443604 Q 264.645020 239.047852 264.645020 240.272461 Z " fill="rgb(0, 150, 255)" fill-opacity="1.000000" />
<path d="M 267.697266 238.005859 L 270.227051 238.005859 L 270.227051 243.231934 L 272.187500 243.231934 L 272.187500 244.000000 L 267.278320 244.000000 L 267.278320 243.231934 L 269.238770 243.231934 L 269.238770 238.773926 L 267.697266 238.773926 Z M 269.238770 235.669434 L 270.227051 235.669434 L 270.227051 236.915527 L 269.238770 236.915527 Z " fill="rgb(0, 150, 255)" fill-opacity="1.000000" />
<path d="M 276.297852 236.276367 L 276.297852 237.984375 L 278.542969 237.984375 L 278.542969 238.752441 L 276.297852 238.752441 L 276.297852 242.018066 Q 276.297852 242.684082 276.550293 242.947266 Q 276.802734 243.210449 277.431152 243.210449 L 278.542969 243.210449 L 278.542969 244.000000 L 277.334473 244.000000 Q 276.222656 244.000000 275.766113 243.554199 Q 275.309570 243.108398 275.309570 242.018066 L 275.309570 238.752441 L 273.703613 238.752441 L 273.703613 237.984375 L 275.309570 237.984375 L 275.309570 236.276367 Z " fill="rgb(0, 150, 255)" fill-opacity="1.000000" />
<path d="M 286.015625 240.498047 L 286.015625 240.981445 L 281.734863 240.981445 L 281.734863 241.013672 Q 281.691895 242.243652 282.204834 242.780762 Q 282.717773 243.317871 283.652344 243.317871 Q 284.125000 243.317871 284.640625 243.167480 Q 285.156250 243.017090 285.741699 242.710938 L 285.741699 243.693848 Q 285.177734 243.924805 284.654053 244.040283 Q 284.130371 244.155762 283.641602 244.155762 Q 282.239746 244.155762 281.450195 243.315186 Q 280.660645 242.474609 280.660645 240.997559 Q 280.660645 239.558105 281.434082 238.698730 Q 282.207520 237.839355 283.496582 237.839355 Q 284.645996 237.839355 285.309326 238.618164 Q 285.972656 239.396973 286.015625 240.498047 Z M 285.027344 240.208008 Q 284.962891 239.584961 284.573486 239.131104 Q 284.184082 238.677246 283.453613 238.677246 Q 282.739258 238.677246 282.277344 239.149902 Q 281.815430 239.622559 281.772461 240.213379 Z " fill="rgb(0, 150, 255)" fill-opacity="1.000000" />
<path d="M 291.930664 240.997559 Q 291.930664 239.848145 291.565430 239.262695 Q 291.200195 238.677246 290.485840 238.677246 Q 289.766113 238.677246 289.395508 239.265381 Q 289.024902 239.853516 289.024902 240.997559 Q 289.024902 242.136230 289.395508 242.727051 Q 289.766113 243.317871 290.485840 243.317871 Q 291.200195 243.317871 291.565430 242.732422 Q 291.930664 242.146973 291.930664 240.997559 Z M 289.024902 238.752441 Q 289.261230 238.312012 289.677490 238.075684 Q 290.093750 237.839355 290.641602 237.839355 Q 291.726562 237.839355 292.349609 238.674561 Q 292.972656 239.509766 292.972656 240.976074 Q 292.972656 242.463867 292.346924 243.309814 Q 291.721191 244.155762 290.630859 244.155762 Q 290.093750 244.155762 289.682861 243.922119 Q 289.271973 243.688477 289.024902 243.242676 L 289.024902 244.000000 L 288.036621 244.000000 L 288.036621 235.642578 L 289.024902 235.642578 Z " fill="rgb(0, 150, 255)" fill-opacity="1.000000" />
<path d="M 297.308594 238.677246 Q 296.556641 238.677246 296.169922 239.262695 Q 295.783203 239.848145 295.783203 240.997559 Q 295.783203 242.141602 296.169922 242.729736 Q 296.556641 243.317871 297.308594 243.317871 Q 298.065918 243.317871 298.452637 242.729736 Q 298.839355 242.141602 298.839355 240.997559 Q 298.839355 239.848145 298.452637 239.262695 Q 298.065918 238.677246 297.308594 238.677246 Z M 297.308594 237.839355 Q 298.560059 237.839355 299.223389 238.650391 Q 299.886719 239.461426 299.886719 240.997559 Q 299.886719 242.539062 299.226074 243.347412 Q 298.565430 244.155762 297.308594 244.155762 Q 296.057129 244.155762 295.396484 243.347412 Q 294.735840 242.539062 294.735840 240.997559 Q 294.735840 239.461426 295.396484 238.650391 Q 296.057129 237.839355 297.308594 237.839355 Z " fill="rgb(0, 150, 255)" fill-opacity="1.000000" />
<path d="M 304.770508 240.976074 L 304.442871 240.976074 Q 303.578125 240.976074 303.140381 241.279541 Q 302.702637 241.583008 302.702637 242.184570 Q 302.702637 242.727051 303.030273 243.027832 Q 303.357910 243.328613 303.937988 243.328613 Q 304.754395 243.328613 305.221680 242.761963 Q 305.688965 242.195312 305.694336 241.196289 L 305.694336 240.976074 Z M 306.687988 240.567871 L 306.687988 244.000000 L 305.694336 244.000000 L 305.694336 243.108398 Q 305.377441 243.645508 304.896729 243.900635 Q 304.416016 244.155762 303.728516 244.155762 Q 302.810059 244.155762 302.262207 243.637451 Q 301.714355 243.119141 301.714355 242.249023 Q 301.714355 241.244629 302.388428 240.723633 Q 303.062500 240.202637 304.367676 240.202637 L 305.694336 240.202637 L 305.694336 240.046875 Q 305.688965 239.327148 305.329102 239.002197 Q 304.969238 238.677246 304.179688 238.677246 Q 303.674805 238.677246 303.159180 238.822266 Q 302.643555 238.967285 302.154785 239.246582 L 302.154785 238.258301 Q 302.702637 238.048828 303.204834 237.944092 Q 303.707031 237.839355 304.179688 237.839355 Q 304.926270 237.839355 305.455322 238.059570 Q 305.984375 238.279785 306.312012 238.720215 Q 306.516113 238.988770 306.602051 239.383545 Q 306.687988 239.778320 306.687988 240.567871 Z " fill="rgb(0, 150, 255)" fill-opacity="1.000000" />
<path d="M 314.203613 239.225098 Q 313.886719 238.978027 313.559082 238.865234 Q 313.231445 238.752441 312.839355 238.752441 Q 311.915527 238.752441 311.426758 239.332520 Q 310.937988 239.912598 310.937988 241.008301 L 310.937988 244.000000 L 309.944336 244.000000 L 309.944336 237.984375 L 310.937988 237.984375 L 310.937988 239.160645 Q 311.185059 238.521484 311.697998 238.180420 Q 312.210938 237.839355 312.914551 237.839355 Q 313.279785 237.839355 313.596680 237.930664 Q 313.913574 238.021973 314.203613 238.215332 Z " fill="rgb(0, 150, 255)" fill-opacity="1.000000" />
<path d="M 319.608398 238.752441 L 319.608398 235.642578 L 320.596680 235.642578 L 320.596680 244.000000 L 319.608398 244.000000 L 319.608398 243.242676 Q 319.361328 243.688477 318.950439 243.922119 Q 318.539551 244.155762 318.002441 244.155762 Q 316.912109 244.155762 316.286377 243.309814 Q 315.660645 242.463867 315.660645 240.976074 Q 315.660645 239.509766 316.289062 238.674561 Q 316.917480 237.839355 318.002441 237.839355 Q 318.544922 237.839355 318.958496 238.072998 Q 319.372070 238.306641 319.608398 238.752441 Z M 316.702637 240.997559 Q 316.702637 242.146973 317.067871 242.732422 Q 317.433105 243.317871 318.147461 243.317871 Q 318.861816 243.317871 319.235107 242.727051 Q 319.608398 242.136230 319.608398 240.997559 Q 319.608398 239.853516 319.235107 239.265381 Q 318.861816 238.677246 318.147461 238.677246 Q 317.433105 238.677246 317.067871 239.262695 Q 316.702637 239.848145 316.702637 240.997559 Z " fill="rgb(0, 150, 255)" fill-opacity="1.000000" />
<path d="M 331.878906 247.319336 L 331.878906 233.300781 L 332.738281 233.300781 L 332.738281 247.319336 Z " fill="rgb(0, 150, 255)" fill-opacity="1.000000" />
<path d="M 129.308594 225.677246 Q 128.556641 225.677246 128.169922 226.262695 Q 127.783203 226.848145 127.783203 227.997559 Q 127.783203 229.141602 128.169922 229.729736 Q 128.556641 230.317871 129.308594 230.317871 Q 130.065918 230.317871 130.452637 229.729736 Q 130.839355 229.141602 130.839355 227.997559 Q 130.839355 226.848145 130.452637 226.262695 Q 130.065918 225.677246 129.308594 225.677246 Z M 129.308594 224.839355 Q 130.560059 224.839355 131.223389 225.650391 Q 131.886719 226.461426 131.886719 227.997559 Q 131.886719 229.539062 131.226074 230.347412 Q 130.565430 231.155762 129.308594 231.155762 Q 128.057129 231.155762 127.396484 230.347412 Q 126.735840 229.539062 126.735840 227.997559 Q 126.735840 226.461426 127.396484 225.650391 Q 128.057129 224.839355 129.308594 224.839355 Z " fill="rgb(0, 0, 0)" fill-opacity="1.000000" />
<path d="M 136.308594 225.677246 Q 135.556641 225.677246 135.169922 226.262695 Q 134.783203 226.848145 134.783203 227.997559 Q 134.783203 229.141602 135.169922 229.729736 Q 135.556641 230.317871 136.308594 230.317871 Q 137.065918 230.317871 137.452637 229.729736 Q 137.839355 229.141602 137.839355 227.997559 Q 137.839355 226.848145 137.452637 226.262695 Q 137.065918 225.677246 136.308594 225.677246 Z M 136.308594 224.839355 Q 137.560059 224.839355 138.223389 225.650391 Q 138.886719 226.461426 138.886719 227.997559 Q 138.886719 229.539062 138.226074 230.347412 Q 137.565430 231.155762 136.308594 231.155762 Q 135.057129 231.155762 134.396484 230.347412 Q 133.735840 229.539062 133.735840 227.997559 Q 133.735840 226.461426 134.396484 225.650391 Q 135.057129 224.839355 136.308594 224.839355 Z " fill="rgb(0, 0, 0)" fill-opacity="1.000000" />
<path d="M 143.630859 225.596680 Q 143.813477 225.209961 144.095459 225.024658 Q 144.377441 224.839355 144.774902 224.839355 Q 145.500000 224.839355 145.798096 225.400635 Q 146.096191 225.961914 146.096191 227.514160 L 146.096191 231.000000 L 145.193848 231.000000 L 145.193848 227.557129 Q 145.193848 226.284180 145.051514 225.975342 Q 144.909180 225.666504 144.533203 225.666504 Q 144.103516 225.666504 143.945068 225.996826 Q 143.786621 226.327148 143.786621 227.557129 L 143.786621 231.000000 L 142.884277 231.000000 L 142.884277 227.557129 Q 142.884277 226.268066 142.731201 225.967285 Q 142.578125 225.666504 142.180664 225.666504 Q 141.788574 225.666504 141.635498 225.996826 Q 141.482422 226.327148 141.482422 227.557129 L 141.482422 231.000000 L 140.585449 231.000000 L 140.585449 224.984375 L 141.482422 224.984375 L 141.482422 225.500000 Q 141.659668 225.177734 141.925537 225.008545 Q 142.191406 224.839355 142.529785 224.839355 Q 142.937988 224.839355 143.209229 225.027344 Q 143.480469 225.215332 143.630859 225.596680 Z " fill="rgb(0, 0, 0)" fill-opacity="1.000000" />
<path d="M 198.878906 234.319336 L 198.878906 220.300781 L 199.738281 220.300781 L 199.738281 234.319336 Z " fill="rgb(0, 0, 0)" fill-opacity="1.000000" />
<path d="M 212.089355 228.830078 L 213.979980 228.830078 L 213.979980 231.000000 L 212.089355 231.000000 Z " fill="rgb(0, 150, 255)" fill-opacity="1.000000" />
<path d="M 216.892578 228.335938 L 216.892578 227.412109 L 219.878906 227.412109 L 219.878906 220.300781 L 220.738281 220.300781 L 220.738281 227.412109 L 223.729980 227.412109 L 223.729980 228.335938 Z " fill="rgb(0, 150, 255)" fill-opacity="1.000000" />
<path d="M 226.089355 228.830078 L 227.979980 228.830078 L 227.979980 231.000000 L 226.089355 231.000000 Z " fill="rgb(0, 150, 255)" fill-opacity="1.000000" />
<path d="M 240.878906 234.319336 L 240.878906 220.300781 L 241.738281 220.300781 L 241.738281 234.319336 Z " fill="rgb(0, 150, 255)" fill-opacity="1.000000" />
<path d="M 331.878906 234.319336 L 331.878906 220.300781 L 332.738281 220.300781 L 332.738281 234.319336 Z " fill="rgb(0, 150, 255)" fill-opacity="1.000000" />
<path d="M 198.878906 208.319336 L 198.878906 194.300781 L 199.738281 194.300781 L 199.738281 208.319336 Z " fill="rgb(0, 0, 0)" fill-opacity="1.000000" />
<path d="M 198.878906 221.319336 L 198.878906 207.300781 L 199.738281 207.300781 L 199.738281 221.319336 Z " fill="rgb(0, 0, 0)" fill-opacity="1.000000" />
<path d="M 219.878906 208.319336 L 219.878906 194.300781 L 220.738281 194.300781 L 220.738281 208.319336 Z " fill="rgb(0, 150, 255)" fill-opacity="1.000000" />
<path d="M 219.878906 221.319336 L 219.878906 207.300781 L 220.738281 207.300781 L 220.738281 221.319336 Z " fill="rgb(0, 150, 255)" fill-opacity="1.000000" />
<path d="M 240.878906 221.319336 L 240.878906 214.412109 L 244.729980 214.412109 L 244.729980 215.335938 L 241.738281 215.335938 L 241.738281 221.319336 Z " fill="rgb(0, 150, 255)" fill-opacity="1.000000" />
<path d="M 244.892578 215.335938 L 244.892578 214.412109 L 251.729980 214.412109 L 251.729980 215.335938 Z " fill="rgb(0, 150, 255)" fill-opacity="1.000000" />
<path d="M 251.892578 215.335938 L 251.892578 214.412109 L 258.729980 214.412109 L 258.729980 215.335938 Z " fill="rgb(0, 150, 255)" fill-opacity="1.000000" />
<path d="M 258.892578 215.335938 L 258.892578 214.412109 L 265.729980 214.412109 L 265.729980 215.335938 Z " fill="rgb(0, 150, 255)" fill-opacity="1.000000" />
<path d="M 265.892578 215.335938 L 265.892578 214.412109 L 272.729980 214.412109 L 272.729980 215.335938 Z " fill="rgb(0, 150, 255)" fill-opacity="1.000000" />
<path d="M 272.892578 215.335938 L 272.892578 214.412109 L 275.878906 214.412109 L 275.878906 207.300781 L 276.738281 207.300781 L 276.738281 214.412109 L 279.729980 214.412109 L 279.729980 215.335938 Z " fill="rgb(0, 150, 255)" fill-opacity="1.000000" />
<path d="M 279.892578 215.335938 L 279.892578 214.412109 L 286.729980 214.412109 L 286.729980 215.335938 Z " fill="rgb(0, 150, 255)" fill-opacity="1.000000" />
<path d="M 286.892578 215.335938 L 286.892578 214.412109 L 293.729980 214.412109 L 293.729980 215.335938 Z " fill="rgb(0, 150, 255)" fill-opacity="1.000000" />
<path d="M 293.892578 215.335938 L 293.892578 214.412109 L 300.729980 214.412109 L 300.729980 215.335938 Z " fill="rgb(0, 150, 255)" fill-opacity="1.000000" />
<path d="M 300.892578 215.335938 L 300.892578 214.412109 L 307.729980 214.412109 L 307.729980 215.335938 Z " fill="rgb(0, 150, 255)" fill-opacity="1.000000" />
<path d="M 307.892578 215.335938 L 307.892578 214.412109 L 314.729980 214.412109 L 314.729980 215.335938 Z " fill="rgb(0, 150, 255)" fill-opacity="1.000000" />
<path d="M 314.892578 215.335938 L 314.892578 214.412109 L 321.729980 214.412109 L 321.729980 215.335938 Z " fill="rgb(0, 150, 255)" fill-opacity="1.000000" />
<path d="M 321.892578 215.335938 L 321.892578 214.412109 L 328.729980 214.412109 L 328.729980 215.335938 Z " fill="rgb(0, 150, 255)" fill-opacity="1.000000" />
<path d="M 331.878906 221.319336 L 331.878906 215.335938 L 328.892578 215.335938 L 328.892578 214.412109 L 332.738281 214.412109 L 332.738281 221.319336 Z " fill="rgb(0, 150, 255)" fill-opacity="1.000000" />
<path d="M 275.878906 208.319336 L 275.878906 194.300781 L 276.738281 194.300781 L 276.738281 208.319336 Z " fill="rgb(0, 150, 255)" fill-opacity="1.000000" />
<path d="M 69.892578 189.335938 L 69.892578 188.412109 L 76.729980 188.412109 L 76.729980 189.335938 Z " fill="rgb(0, 0, 0)" fill-opacity="1.000000" />
<path d="M 76.892578 189.335938 L 76.892578 188.412109 L 83.729980 188.412109 L 83.729980 189.335938 Z " fill="rgb(0, 0, 0)" fill-opacity="1.000000" />
<path d="M 83.892578 189.335938 L 83.892578 188.412109 L 90.729980 188.412109 L 90.729980 189.335938 Z " fill="rgb(0, 0, 0)" fill-opacity="1.000000" />
<path d="M 94.308594 192.418945 L 91.032227 185.866211 L 97.590332 185.866211 Z " fill="rgb(0, 0, 0)" fill-opacity="1.000000" />
<path d="M 97.892578 189.335938 L 97.892578 188.412109 L 104.729980 188.412109 L 104.729980 189.335938 Z " fill="rgb(0, 0, 0)" fill-opacity="1.000000" />
<path d="M 104.892578 189.335938 L 104.892578 188.412109 L 111.729980 188.412109 L 111.729980 189.335938 Z " fill="rgb(0, 0, 0)" fill-opacity="1.000000" />
<path d="M 111.892578 189.335938 L 111.892578 188.412109 L 118.729980 188.412109 L 118.729980 189.335938 Z " fill="rgb(0, 0, 0)" fill-opacity="1.000000" />
<path d="M 118.892578 189.335938 L 118.892578 188.412109 L 125.729980 188.412109 L 125.729980 189.335938 Z " fill="rgb(0, 0, 0)" fill-opacity="1.000000" />
<path d="M 125.892578 189.335938 L 125.892578 188.412109 L 132.729980 188.412109 L 132.729980 189.335938 Z " fill="rgb(0, 0, 0)" fill-opacity="1.000000" />
<path d="M 132.892578 189.335938 L 132.892578 188.412109 L 139.729980 188.412109 L 139.729980 189.335938 Z " fill="rgb(0, 0, 0)" fill-opacity="1.000000" />
<path d="M 139.892578 189.335938 L 139.892578 188.412109 L 146.729980 188.412109 L 146.729980 189.335938 Z " fill="rgb(0, 0, 0)" fill-opacity="1.000000" />
<path d="M 146.892578 189.335938 L 146.892578 188.412109 L 153.729980 188.412109 L 153.729980 189.335938 Z " fill="rgb(0, 0, 0)" fill-opacity="1.000000" />
<path d="M 153.892578 189.335938 L 153.892578 188.412109 L 160.729980 188.412109 L 160.729980 189.335938 Z " fill="rgb(0, 0, 0)" fill-opacity="1.000000" />
<path d="M 160.892578 189.335938 L 160.892578 188.412109 L 167.729980 188.412109 L 167.729980 189.335938 Z " fill="rgb(0, 0, 0)" fill-opacity="1.000000" />
<path d="M 167.892578 189.335938 L 167.892578 188.412109 L 174.729980 188.412109 L 174.729980 189.335938 Z " fill="rgb(0, 0, 0)" fill-opacity="1.000000" />
<path d="M 174.892578 189.335938 L 174.892578 188.412109 L 181.729980 188.412109 L 181.729980 189.335938 Z " fill="rgb(0, 0, 0)" fill-opacity="1.000000" />
<path d="M 181.892578 189.335938 L 181.892578 188.412109 L 188.729980 188.412109 L 188.729980 189.335938 Z " fill="rgb(0, 0, 0)" fill-opacity="1.000000" />
<path d="M 188.892578 189.335938 L 188.892578 188.412109 L 195.729980 188.412109 L 195.729980 189.335938 Z " fill="rgb(0, 0, 0)" fill-opacity="1.000000" />
<path d="M 198.878906 195.319336 L 198.878906 189.335938 L 195.892578 189.335938 L 195.892578 188.412109 L 199.738281 188.412109 L 199.738281 195.319336 Z " fill="rgb(0, 0, 0)" fill-opacity="1.000000" />
<path d="M 219.878906 195.319336 L 219.878906 181.300781 L 220.738281 181.300781 L 220.738281 195.319336 Z " fill="rgb(0, 150, 255)" fill-opacity="1.000000" />
<path d="M 275.878906 195.319336 L 275.878906 181.300781 L 276.738281 181.300781 L 276.738281 195.319336 Z " fill="rgb(0, 150, 255)" fill-opacity="1.000000" />
<path d="M 93.878906 156.319336 L 93.878906 149.412109 L 97.729980 149.412109 L 97.729980 150.335938 L 94.738281 150.335938 L 94.738281 156.319336 Z " fill="rgb(0, 0, 0)" fill-opacity="1.000000" />
<path d="M 93.878906 169.319336 L 93.878906 155.300781 L 94.738281 155.300781 L 94.738281 169.319336 Z " fill="rgb(0, 0, 0)" fill-opacity="1.000000" />
<path d="M 93.878906 182.319336 L 93.878906 168.300781 L 94.738281 168.300781 L 94.738281 182.319336 Z " fill="rgb(0, 0, 0)" fill-opacity="1.000000" />
<path d="M 156.878906 163.335938 L 156.878906 155.300781 L 157.738281 155.300781 L 157.738281 162.412109 L 160.729980 162.412109 L 160.729980 163.335938 Z " fill="rgb(0, 0, 0)" fill-opacity="1.000000" />
<path d="M 219.878906 182.319336 L 219.878906 168.300781 L 220.738281 168.300781 L 220.738281 182.319336 Z " fill="rgb(0, 150, 255)" fill-opacity="1.000000" />
<path d="M 275.878906 182.319336 L 275.878906 168.300781 L 276.738281 168.300781 L 276.738281 182.319336 Z " fill="rgb(0, 150, 255)" fill-opacity="1.000000" />
<path d="M 160.892578 163.335938 L 160.892578 162.412109 L 167.729980 162.412109 L 167.729980 163.335938 Z " fill="rgb(0, 0, 0)" fill-opacity="1.000000" />
<path d="M 167.892578 163.335938 L 167.892578 162.412109 L 174.729980 162.412109 L 174.729980 163.335938 Z " fill="rgb(0, 0, 0)" fill-opacity="1.000000" />
<path d="M 174.892578 163.335938 L 174.892578 162.412109 L 181.729980 162.412109 L 181.729980 163.335938 Z " fill="rgb(0, 0, 0)" fill-opacity="1.000000" />
<path d="M 181.892578 163.335938 L 181.892578 162.412109 L 188.729980 162.412109 L 188.729980 163.335938 Z " fill="rgb(0, 0, 0)" fill-opacity="1.000000" />
<path d="M 188.892578 163.335938 L 188.892578 162.412109 L 195.729980 162.412109 L 195.729980 163.335938 Z " fill="rgb(0, 0, 0)" fill-opacity="1.000000" />
<path d="M 195.892578 163.335938 L 195.892578 162.412109 L 202.729980 162.412109 L 202.729980 163.335938 Z " fill="rgb(0, 0, 0)" fill-opacity="1.000000" />
<path d="M 202.892578 163.335938 L 202.892578 162.412109 L 209.729980 162.412109 L 209.729980 163.335938 Z " fill="rgb(0, 0, 0)" fill-opacity="1.000000" />
<path d="M 209.892578 163.335938 L 209.892578 162.412109 L 216.729980 162.412109 L 216.729980 163.335938 Z " fill="rgb(0, 0, 0)" fill-opacity="1.000000" />
<path d="M 217.032227 166.418945 L 220.308594 159.866211 L 223.590332 166.418945 Z " fill="rgb(0, 150, 255)" fill-opacity="1.000000" />
<path d="M 223.892578 163.335938 L 223.892578 162.412109 L 230.729980 162.412109 L 230.729980 163.335938 Z " fill="rgb(0, 0, 0)" fill-opacity="1.000000" />
<path d="M 230.892578 163.335938 L 230.892578 162.412109 L 237.729980 162.412109 L 237.729980 163.335938 Z " fill="rgb(0, 0, 0)" fill-opacity="1.000000" />
<path d="M 237.892578 163.335938 L 237.892578 162.412109 L 244.729980 162.412109 L 244.729980 163.335938 Z " fill="rgb(0, 0, 0)" fill-opacity="1.000000" />
<path d="M 244.892578 163.335938 L 244.892578 162.412109 L 251.729980 162.412109 L 251.729980 163.335938 Z " fill="rgb(0, 0, 0)" fill-opacity="1.000000" />
<path d="M 251.892578 163.335938 L 251.892578 162.412109 L 258.729980 162.412109 L 258.729980 163.335938 Z " fill="rgb(0, 0, 0)" fill-opacity="1.000000" />
<path d="M 258.892578 163.335938 L 258.892578 162.412109 L 265.729980 162.412109 L 265.729980 163.335938 Z " fill="rgb(0, 0, 0)" fill-opacity="1.000000" />
<path d="M 265.892578 163.335938 L 265.892578 162.412109 L 272.729980 162.412109 L 272.729980 163.335938 Z " fill="rgb(0, 0, 0)" fill-opacity="1.000000" />
<path d="M 273.032227 166.418945 L 276.308594 159.866211 L 279.590332 166.418945 Z " fill="rgb(0, 150, 255)" fill-opacity="1.000000" />
<path d="M 279.892578 163.335938 L 279.892578 162.412109 L 286.729980 162.412109 L 286.729980 163.335938 Z " fill="rgb(0, 0, 0)" fill-opacity="1.000000" />
<path d="M 286.892578 163.335938 L 286.892578 162.412109 L 289.878906 162.412109 L 289.878906 155.300781 L 290.738281 155.300781 L 290.738281 163.335938 Z " fill="rgb(0, 0, 0)" fill-opacity="1.000000" />
<path d="M 97.892578 150.335938 L 97.892578 149.412109 L 104.729980 149.412109 L 104.729980 150.335938 Z " fill="rgb(0, 0, 0)" fill-opacity="1.000000" />
<path d="M 104.892578 150.335938 L 104.892578 149.412109 L 111.729980 149.412109 L 111.729980 150.335938 Z " fill="rgb(0, 0, 0)" fill-opacity="1.000000" />
<path d="M 111.892578 150.335938 L 111.892578 149.412109 L 118.729980 149.412109 L 118.729980 150.335938 Z " fill="rgb(0, 0, 0)" fill-opacity="1.000000" />
<path d="M 118.892578 150.335938 L 118.892578 149.412109 L 125.729980 149.412109 L 125.729980 150.335938 Z " fill="rgb(0, 0, 0)" fill-opacity="1.000000" />
<path d="M 125.892578 150.335938 L 125.892578 149.412109 L 132.729980 149.412109 L 132.729980 150.335938 Z " fill="rgb(0, 0, 0)" fill-opacity="1.000000" />
<path d="M 132.892578 150.335938 L 132.892578 149.412109 L 139.729980 149.412109 L 139.729980 150.335938 Z " fill="rgb(0, 0, 0)" fill-opacity="1.000000" />
<path d="M 139.892578 150.335938 L 139.892578 149.412109 L 146.729980 149.412109 L 146.729980 150.335938 Z " fill="rgb(0, 0, 0)" fill-opacity="1.000000" />
<path d="M 146.892578 150.335938 L 146.892578 149.412109 L 153.729980 149.412109 L 153.729980 150.335938 Z " fill="rgb(0, 0, 0)" fill-opacity="1.000000" />
<path d="M 154.032227 153.418945 L 154.032227 146.866211 L 160.590332 146.866211 L 160.590332 153.418945 Z " fill="rgb(0, 0, 0)" fill-opacity="1.000000" />
<path d="M 212.341797 152.108398 Q 213.711426 152.108398 214.253906 151.434326 Q 214.796387 150.760254 214.796387 148.998535 Q 214.796387 147.220703 214.256592 146.546631 Q 213.716797 145.872559 212.341797 145.872559 L 211.826172 145.872559 L 211.826172 152.108398 Z M 212.363281 144.980957 Q 214.200195 144.980957 215.070312 145.958496 Q 215.940430 146.936035 215.940430 148.998535 Q 215.940430 151.050293 215.070312 152.025146 Q 214.200195 153.000000 212.363281 153.000000 L 210.735840 153.000000 L 210.735840 144.980957 Z " fill="rgb(0, 0, 0)" fill-opacity="1.000000" />
<path d="M 220.308594 147.677246 Q 219.556641 147.677246 219.169922 148.262695 Q 218.783203 148.848145 218.783203 149.997559 Q 218.783203 151.141602 219.169922 151.729736 Q 219.556641 152.317871 220.308594 152.317871 Q 221.065918 152.317871 221.452637 151.729736 Q 221.839355 151.141602 221.839355 149.997559 Q 221.839355 148.848145 221.452637 148.262695 Q 221.065918 147.677246 220.308594 147.677246 Z M 220.308594 146.839355 Q 221.560059 146.839355 222.223389 147.650391 Q 222.886719 148.461426 222.886719 149.997559 Q 222.886719 151.539062 222.226074 152.347412 Q 221.565430 153.155762 220.308594 153.155762 Q 219.057129 153.155762 218.396484 152.347412 Q 217.735840 151.539062 217.735840 149.997559 Q 217.735840 148.461426 218.396484 147.650391 Q 219.057129 146.839355 220.308594 146.839355 Z " fill="rgb(0, 0, 0)" fill-opacity="1.000000" />
<path d="M 229.698730 152.693848 Q 229.301270 152.924805 228.879639 153.040283 Q 228.458008 153.155762 228.017578 153.155762 Q 226.621094 153.155762 225.834229 152.317871 Q 225.047363 151.479980 225.047363 149.997559 Q 225.047363 148.515137 225.834229 147.677246 Q 226.621094 146.839355 228.017578 146.839355 Q 228.452637 146.839355 228.866211 146.952148 Q 229.279785 147.064941 229.698730 147.301270 L 229.698730 148.337891 Q 229.306641 147.988770 228.911865 147.833008 Q 228.517090 147.677246 228.017578 147.677246 Q 227.088379 147.677246 226.588867 148.278809 Q 226.089355 148.880371 226.089355 149.997559 Q 226.089355 151.109375 226.591553 151.713623 Q 227.093750 152.317871 228.017578 152.317871 Q 228.533203 152.317871 228.941406 152.159424 Q 229.349609 152.000977 229.698730 151.667969 Z " fill="rgb(0, 0, 0)" fill-opacity="1.000000" />
<path d="M 232.267578 144.642578 L 233.288086 144.642578 L 233.288086 149.481934 L 235.882324 146.984375 L 237.085449 146.984375 L 234.716797 149.250977 L 237.456055 153.000000 L 236.247559 153.000000 L 234.023926 149.895508 L 233.288086 150.588379 L 233.288086 153.000000 L 232.267578 153.000000 Z " fill="rgb(0, 0, 0)" fill-opacity="1.000000" />
<path d="M 289.878906 156.319336 L 289.878906 142.300781 L 290.738281 142.300781 L 290.738281 156.319336 Z " fill="rgb(0, 0, 0)" fill-opacity="1.000000" />
<path d="M 156.878906 143.319336 L 156.878906 136.412109 L 160.729980 136.412109 L 160.729980 137.335938 L 157.738281 137.335938 L 157.738281 143.319336 Z " fill="rgb(0, 0, 0)" fill-opacity="1.000000" />
<path d="M 160.892578 137.335938 L 160.892578 136.412109 L 167.729980 136.412109 L 167.729980 137.335938 Z " fill="rgb(0, 0, 0)" fill-opacity="1.000000" />
<path d="M 167.892578 137.335938 L 167.892578 136.412109 L 174.729980 136.412109 L 174.729980 137.335938 Z " fill="rgb(0, 0, 0)" fill-opacity="1.000000" />
<path d="M 178.308594 140.418945 L 175.032227 133.866211 L 181.590332 133.866211 Z " fill="rgb(0, 0, 0)" fill-opacity="1.000000" />
<path d="M 181.892578 137.335938 L 181.892578 136.412109 L 188.729980 136.412109 L 188.729980 137.335938 Z " fill="rgb(0, 0, 0)" fill-opacity="1.000000" />
<path d="M 188.892578 137.335938 L 188.892578 136.412109 L 195.729980 136.412109 L 195.729980 137.335938 Z " fill="rgb(0, 0, 0)" fill-opacity="1.000000" />
<path d="M 195.892578 137.335938 L 195.892578 136.412109 L 202.729980 136.412109 L 202.729980 137.335938 Z " fill="rgb(0, 0, 0)" fill-opacity="1.000000" />
<path d="M 202.892578 137.335938 L 202.892578 136.412109 L 209.729980 136.412109 L 209.729980 137.335938 Z " fill="rgb(0, 0, 0)" fill-opacity="1.000000" />
<path d="M 209.892578 137.335938 L 209.892578 136.412109 L 216.729980 136.412109 L 216.729980 137.335938 Z " fill="rgb(0, 0, 0)" fill-opacity="1.000000" />
<path d="M 220.308594 140.418945 L 217.032227 133.866211 L 223.590332 133.866211 Z " fill="rgb(0, 150, 255)" fill-opacity="1.000000" />
<path d="M 223.892578 137.335938 L 223.892578 136.412109 L 230.729980 136.412109 L 230.729980 137.335938 Z " fill="rgb(0, 0, 0)" fill-opacity="1.000000" />
<path d="M 230.892578 137.335938 L 230.892578 136.412109 L 237.729980 136.412109 L 237.729980 137.335938 Z " fill="rgb(0, 0, 0)" fill-opacity="1.000000" />
<path d="M 237.892578 137.335938 L 237.892578 136.412109 L 244.729980 136.412109 L 244.729980 137.335938 Z " fill="rgb(0, 0, 0)" fill-opacity="1.000000" />
<path d="M 244.892578 137.335938 L 244.892578 136.412109 L 251.729980 136.412109 L 251.729980 137.335938 Z " fill="rgb(0, 0, 0)" fill-opacity="1.000000" />
<path d="M 251.892578 137.335938 L 251.892578 136.412109 L 258.729980 136.412109 L 258.729980 137.335938 Z " fill="rgb(0, 0, 0)" fill-opacity="1.000000" />
<path d="M 262.308594 140.418945 L 259.032227 133.866211 L 265.590332 133.866211 Z " fill="rgb(0, 150, 255)" fill-opacity="1.000000" />
<path d="M 265.892578 137.335938 L 265.892578 136.412109 L 272.729980 136.412109 L 272.729980 137.335938 Z " fill="rgb(0, 0, 0)" fill-opacity="1.000000" />
<path d="M 272.892578 137.335938 L 272.892578 136.412109 L 279.729980 136.412109 L 279.729980 137.335938 Z " fill="rgb(0, 0, 0)" fill-opacity="1.000000" />
<path d="M 279.892578 137.335938 L 279.892578 136.412109 L 286.729980 136.412109 L 286.729980 137.335938 Z " fill="rgb(0, 0, 0)" fill-opacity="1.000000" />
<path d="M 289.878906 143.319336 L 289.878906 137.335938 L 286.892578 137.335938 L 286.892578 136.412109 L 290.738281 136.412109 L 290.738281 143.319336 Z " fill="rgb(0, 0, 0)" fill-opacity="1.000000" />
<path d="M 177.878906 130.319336 L 177.878906 116.300781 L 178.738281 116.300781 L 178.738281 130.319336 Z " fill="rgb(0, 0, 0)" fill-opacity="1.000000" />
<path d="M 219.878906 130.319336 L 219.878906 116.300781 L 220.738281 116.300781 L 220.738281 130.319336 Z " fill="rgb(0, 150, 255)" fill-opacity="1.000000" />
<path d="M 261.878906 130.319336 L 261.878906 116.300781 L 262.738281 116.300781 L 262.738281 130.319336 Z " fill="rgb(0, 150, 255)" fill-opacity="1.000000" />
<path d="M 6.892578 111.335938 L 6.892578 110.412109 L 13.729980 110.412109 L 13.729980 111.335938 Z " fill="rgb(0, 0, 0)" fill-opacity="1.000000" />
<path d="M 13.892578 111.335938 L 13.892578 110.412109 L 20.729980 110.412109 L 20.729980 111.335938 Z " fill="rgb(0, 0, 0)" fill-opacity="1.000000" />
<path d="M 20.892578 111.335938 L 20.892578 110.412109 L 27.729980 110.412109 L 27.729980 111.335938 Z " fill="rgb(0, 0, 0)" fill-opacity="1.000000" />
<path d="M 27.892578 111.335938 L 27.892578 110.412109 L 34.729980 110.412109 L 34.729980 111.335938 Z " fill="rgb(0, 0, 0)" fill-opacity="1.000000" />
<path d="M 34.892578 111.335938 L 34.892578 110.412109 L 41.729980 110.412109 L 41.729980 111.335938 Z " fill="rgb(0, 0, 0)" fill-opacity="1.000000" />
<path d="M 41.892578 111.335938 L 41.892578 110.412109 L 48.729980 110.412109 L 48.729980 111.335938 Z " fill="rgb(0, 0, 0)" fill-opacity="1.000000" />
<path d="M 48.892578 111.335938 L 48.892578 110.412109 L 55.729980 110.412109 L 55.729980 111.335938 Z " fill="rgb(0, 0, 0)" fill-opacity="1.000000" />
<path d="M 55.892578 111.335938 L 55.892578 110.412109 L 62.729980 110.412109 L 62.729980 111.335938 Z " fill="rgb(0, 0, 0)" fill-opacity="1.000000" />
<path d="M 62.892578 111.335938 L 62.892578 110.412109 L 69.729980 110.412109 L 69.729980 111.335938 Z " fill="rgb(0, 0, 0)" fill-opacity="1.000000" />
<path d="M 69.892578 111.335938 L 69.892578 110.412109 L 76.729980 110.412109 L 76.729980 111.335938 Z " fill="rgb(0, 0, 0)" fill-opacity="1.000000" />
<path d="M 76.892578 111.335938 L 76.892578 110.412109 L 83.729980 110.412109 L 83.729980 111.335938 Z " fill="rgb(0, 0, 0)" fill-opacity="1.000000" />
<path d="M 83.892578 111.335938 L 83.892578 110.412109 L 90.729980 110.412109 L 90.729980 111.335938 Z " fill="rgb(0, 0, 0)" fill-opacity="1.000000" />
<path d="M 90.892578 111.335938 L 90.892578 110.412109 L 97.729980 110.412109 L 97.729980 111.335938 Z " fill="rgb(0, 0, 0)" fill-opacity="1.000000" />
<path d="M 97.892578 111.335938 L 97.892578 110.412109 L 104.729980 110.412109 L 104.729980 111.335938 Z " fill="rgb(0, 0, 0)" fill-opacity="1.000000" />
<path d="M 104.892578 111.335938 L 104.892578 110.412109 L 111.729980 110.412109 L 111.729980 111.335938 Z " fill="rgb(0, 0, 0)" fill-opacity="1.000000" />
<path d="M 111.892578 111.335938 L 111.892578 110.412109 L 114.878906 110.412109 L 114.878906 103.300781 L 115.738281 103.300781 L 115.738281 110.412109 L 118.729980 110.412109 L 118.729980 111.335938 Z " fill="rgb(0, 0, 0)" fill-opacity="1.000000" />
<path d="M 118.892578 111.335938 L 118.892578 110.412109 L 125.729980 110.412109 L 125.729980 111.335938 Z " fill="rgb(0, 0, 0)" fill-opacity="1.000000" />
<path d="M 125.892578 111.335938 L 125.892578 110.412109 L 132.729980 110.412109 L 132.729980 111.335938 Z " fill="rgb(0, 0, 0)" fill-opacity="1.000000" />
<path d="M 132.892578 111.335938 L 132.892578 110.412109 L 139.729980 110.412109 L 139.729980 111.335938 Z " fill="rgb(0, 0, 0)" fill-opacity="1.000000" />
<path d="M 139.892578 111.335938 L 139.892578 110.412109 L 146.729980 110.412109 L 146.729980 111.335938 Z " fill="rgb(0, 0, 0)" fill-opacity="1.000000" />
<path d="M 146.892578 111.335938 L 146.892578 110.412109 L 153.729980 110.412109 L 153.729980 111.335938 Z " fill="rgb(0, 0, 0)" fill-opacity="1.000000" />
<path d="M 153.892578 111.335938 L 153.892578 110.412109 L 160.729980 110.412109 L 160.729980 111.335938 Z " fill="rgb(0, 0, 0)" fill-opacity="1.000000" />
<path d="M 160.892578 111.335938 L 160.892578 110.412109 L 167.729980 110.412109 L 167.729980 111.335938 Z " fill="rgb(0, 0, 0)" fill-opacity="1.000000" />
<path d="M 167.892578 111.335938 L 167.892578 110.412109 L 174.729980 110.412109 L 174.729980 111.335938 Z " fill="rgb(0, 0, 0)" fill-opacity="1.000000" />
<path d="M 177.878906 117.319336 L 177.878906 111.335938 L 174.892578 111.335938 L 174.892578 110.412109 L 181.729980 110.412109 L 181.729980 111.335938 L 178.738281 111.335938 L 178.738281 117.319336 Z " fill="rgb(0, 0, 0)" fill-opacity="1.000000" />
<path d="M 181.892578 111.335938 L 181.892578 110.412109 L 188.729980 110.412109 L 188.729980 111.335938 Z " fill="rgb(0, 0, 0)" fill-opacity="1.000000" />
<path d="M 188.892578 111.335938 L 188.892578 110.412109 L 195.729980 110.412109 L 195.729980 111.335938 Z " fill="rgb(0, 0, 0)" fill-opacity="1.000000" />
<path d="M 195.892578 111.335938 L 195.892578 110.412109 L 202.729980 110.412109 L 202.729980 111.335938 Z " fill="rgb(0, 0, 0)" fill-opacity="1.000000" />
<path d="M 202.892578 111.335938 L 202.892578 110.412109 L 209.729980 110.412109 L 209.729980 111.335938 Z " fill="rgb(0, 0, 0)" fill-opacity="1.000000" />
<path d="M 209.892578 111.335938 L 209.892578 110.412109 L 212.878906 110.412109 L 212.878906 103.300781 L 213.738281 103.300781 L 213.738281 111.335938 Z " fill="rgb(0, 0, 0)" fill-opacity="1.000000" />
<path d="M 219.878906 117.319336 L 219.878906 103.300781 L 220.738281 103.300781 L 220.738281 117.319336 Z " fill="rgb(0, 150, 255)" fill-opacity="1.000000" />
<path d="M 226.878906 111.335938 L 226.878906 103.300781 L 227.738281 103.300781 L 227.738281 110.412109 L 230.729980 110.412109 L 230.729980 111.335938 Z " fill="rgb(0, 150, 255)" fill-opacity="1.000000" />
<path d="M 230.892578 111.335938 L 230.892578 110.412109 L 237.729980 110.412109 L 237.729980 111.335938 Z " fill="rgb(0, 150, 255)" fill-opacity="1.000000" />
<path d="M 237.892578 111.335938 L 237.892578 110.412109 L 244.729980 110.412109 L 244.729980 111.335938 Z " fill="rgb(0, 150, 255)" fill-opacity="1.000000" />
<path d="M 244.892578 111.335938 L 244.892578 110.412109 L 251.729980 110.412109 L 251.729980 111.335938 Z " fill="rgb(0, 150, 255)" fill-opacity="1.000000" />
<path d="M 251.892578 111.335938 L 251.892578 110.412109 L 258.729980 110.412109 L 258.729980 111.335938 Z " fill="rgb(0, 150, 255)" fill-opacity="1.000000" />
<path d="M 261.878906 117.319336 L 261.878906 111.335938 L 258.892578 111.335938 L 258.892578 110.412109 L 265.729980 110.412109 L 265.729980 111.335938 L 262.738281 111.335938 L 262.738281 117.319336 Z " fill="rgb(0, 150, 255)" fill-opacity="1.000000" />
<path d="M 265.892578 111.335938 L 265.892578 110.412109 L 272.729980 110.412109 L 272.729980 111.335938 Z " fill="rgb(0, 150, 255)" fill-opacity="1.000000" />
<path d="M 272.892578 111.335938 L 272.892578 110.412109 L 279.729980 110.412109 L 279.729980 111.335938 Z " fill="rgb(0, 150, 255)" fill-opacity="1.000000" />
<path d="M 279.892578 111.335938 L 279.892578 110.412109 L 286.729980 110.412109 L 286.729980 111.335938 Z " fill="rgb(0, 150, 255)" fill-opacity="1.000000" />
<path d="M 286.892578 111.335938 L 286.892578 110.412109 L 293.729980 110.412109 L 293.729980 111.335938 Z " fill="rgb(0, 150, 255)" fill-opacity="1.000000" />
<path d="M 293.892578 111.335938 L 293.892578 110.412109 L 300.729980 110.412109 L 300.729980 111.335938 Z " fill="rgb(0, 150, 255)" fill-opacity="1.000000" />
<path d="M 300.892578 111.335938 L 300.892578 110.412109 L 307.729980 110.412109 L 307.729980 111.335938 Z " fill="rgb(0, 150, 255)" fill-opacity="1.000000" />
<path d="M 307.892578 111.335938 L 307.892578 110.412109 L 314.729980 110.412109 L 314.729980 111.335938 Z " fill="rgb(0, 150, 255)" fill-opacity="1.000000" />
<path d="M 314.892578 111.335938 L 314.892578 110.412109 L 321.729980 110.412109 L 321.729980 111.335938 Z " fill="rgb(0, 150, 255)" fill-opacity="1.000000" />
<path d="M 321.892578 111.335938 L 321.892578 110.412109 L 328.729980 110.412109 L 328.729980 111.335938 Z " fill="rgb(0, 150, 255)" fill-opacity="1.000000" />
<path d="M 328.892578 111.335938 L 328.892578 110.412109 L 335.729980 110.412109 L 335.729980 111.335938 Z " fill="rgb(0, 150, 255)" fill-opacity="1.000000" />
<path d="M 335.892578 111.335938 L 335.892578 110.412109 L 342.729980 110.412109 L 342.729980 111.335938 Z " fill="rgb(0, 150, 255)" fill-opacity="1.000000" />
<path d="M 342.892578 111.335938 L 342.892578 110.412109 L 349.729980 110.412109 L 349.729980 111.335938 Z " fill="rgb(0, 150, 255)" fill-opacity="1.000000" />
<path d="M 349.892578 111.335938 L 349.892578 110.412109 L 356.729980 110.412109 L 356.729980 111.335938 Z " fill="rgb(0, 150, 255)" fill-opacity="1.000000" />
<path d="M 356.892578 111.335938 L 356.892578 110.412109 L 363.729980 110.412109 L 363.729980 111.335938 Z " fill="rgb(0, 150, 255)" fill-opacity="1.000000" />
<path d="M 363.892578 111.335938 L 363.892578 110.412109 L 370.729980 110.412109 L 370.729980 111.335938 Z " fill="rgb(0, 150, 255)" fill-opacity="1.000000" />
<path d="M 370.892578 111.335938 L 370.892578 110.412109 L 377.729980 110.412109 L 377.729980 111.335938 Z " fill="rgb(0, 150, 255)" fill-opacity="1.000000" />
<path d="M 377.892578 111.335938 L 377.892578 110.412109 L 384.729980 110.412109 L 384.729980 111.335938 Z " fill="rgb(0, 150, 255)" fill-opacity="1.000000" />
<path d="M 384.892578 111.335938 L 384.892578 110.412109 L 391.729980 110.412109 L 391.729980 111.335938 Z " fill="rgb(0, 150, 255)" fill-opacity="1.000000" />
<path d="M 391.892578 111.335938 L 391.892578 110.412109 L 398.729980 110.412109 L 398.729980 111.335938 Z " fill="rgb(0, 150, 255)" fill-opacity="1.000000" />
<path d="M 398.892578 111.335938 L 398.892578 110.412109 L 405.729980 110.412109 L 405.729980 111.335938 Z " fill="rgb(0, 150, 255)" fill-opacity="1.000000" />
<path d="M 405.892578 111.335938 L 405.892578 110.412109 L 412.729980 110.412109 L 412.729980 111.335938 Z " fill="rgb(0, 150, 255)" fill-opacity="1.000000" />
<path d="M 412.892578 111.335938 L 412.892578 110.412109 L 419.729980 110.412109 L 419.729980 111.335938 Z " fill="rgb(0, 150, 255)" fill-opacity="1.000000" />
<path d="M 419.892578 111.335938 L 419.892578 110.412109 L 426.729980 110.412109 L 426.729980 111.335938 Z " fill="rgb(0, 150, 255)" fill-opacity="1.000000" />
<path d="M 426.892578 111.335938 L 426.892578 110.412109 L 433.729980 110.412109 L 433.729980 111.335938 Z " fill="rgb(0, 150, 255)" fill-opacity="1.000000" />
<path d="M 433.892578 111.335938 L 433.892578 110.412109 L 436.878906 110.412109 L 436.878906 103.300781 L 437.738281 103.300781 L 437.738281 111.335938 Z " fill="rgb(0, 150, 255)" fill-opacity="1.000000" />
<path d="M 22.251465 53.980957 L 26.972656 53.980957 L 26.972656 54.894043 L 23.341797 54.894043 L 23.341797 57.042480 L 26.634277 57.042480 L 26.634277 57.955566 L 23.341797 57.955566 L 23.341797 62.000000 L 22.251465 62.000000 Z " fill="rgb(0, 0, 0)" fill-opacity="1.000000" />
<path d="M 114.878906 78.319336 L 114.878906 64.300781 L 115.738281 64.300781 L 115.738281 78.319336 Z " fill="rgb(0, 0, 0)" fill-opacity="1.000000" />
<path d="M 114.878906 91.319336 L 114.878906 77.300781 L 115.738281 77.300781 L 115.738281 91.319336 Z " fill="rgb(0, 0, 0)" fill-opacity="1.000000" />
<path d="M 114.878906 104.319336 L 114.878906 90.300781 L 115.738281 90.300781 L 115.738281 104.319336 Z " fill="rgb(0, 0, 0)" fill-opacity="1.000000" />
<path d="M 152.435547 80.254883 L 152.435547 81.355957 Q 151.941406 81.039062 151.444580 80.877930 Q 150.947754 80.716797 150.442871 80.716797 Q 149.674805 80.716797 149.229004 81.073975 Q 148.783203 81.431152 148.783203 82.038086 Q 148.783203 82.569824 149.075928 82.849121 Q 149.368652 83.128418 150.168945 83.316406 L 150.738281 83.445312 Q 151.866211 83.708496 152.381836 84.272461 Q 152.897461 84.836426 152.897461 85.808594 Q 152.897461 86.952637 152.188477 87.554199 Q 151.479492 88.155762 150.125977 88.155762 Q 149.562012 88.155762 148.992676 88.034912 Q 148.423340 87.914062 147.848633 87.672363 L 147.848633 86.517578 Q 148.466309 86.909668 149.016846 87.092285 Q 149.567383 87.274902 150.125977 87.274902 Q 150.947754 87.274902 151.404297 86.906982 Q 151.860840 86.539062 151.860840 85.878418 Q 151.860840 85.276855 151.546631 84.959961 Q 151.232422 84.643066 150.453613 84.471191 L 149.873535 84.336914 Q 148.756348 84.084473 148.251465 83.574219 Q 147.746582 83.063965 147.746582 82.204590 Q 147.746582 81.130371 148.468994 80.483154 Q 149.191406 79.835938 150.389160 79.835938 Q 150.851074 79.835938 151.361328 79.940674 Q 151.871582 80.045410 152.435547 80.254883 Z " fill="rgb(0, 0, 0)" fill-opacity="1.000000" />
<path d="M 212.878906 104.319336 L 212.878906 90.300781 L 213.738281 90.300781 L 213.738281 104.319336 Z " fill="rgb(0, 0, 0)" fill-opacity="1.000000" />
<path d="M 219.878906 104.319336 L 219.878906 90.300781 L 220.738281 90.300781 L 220.738281 104.319336 Z " fill="rgb(0, 150, 255)" fill-opacity="1.000000" />
<path d="M 226.878906 104.319336 L 226.878906 90.300781 L 227.738281 90.300781 L 227.738281 104.319336 Z " fill="rgb(0, 150, 255)" fill-opacity="1.000000" />
<path d="M 436.878906 104.319336 L 436.878906 90.300781 L 437.738281 90.300781 L 437.738281 104.319336 Z " fill="rgb(0, 150, 255)" fill-opacity="1.000000" />
<path d="M 157.861816 85.824707 Q 157.861816 86.490723 158.106201 86.829102 Q 158.350586 87.167480 158.828613 87.167480 L 159.983398 87.167480 L 159.983398 88.000000 L 158.731934 88.000000 Q 157.845703 88.000000 157.359619 87.433350 Q 156.873535 86.866699 156.873535 85.824707 L 156.873535 80.383789 L 155.289062 80.383789 L 155.289062 79.610352 L 157.861816 79.610352 Z " fill="rgb(0, 0, 0)" fill-opacity="1.000000" />
<path d="M 164.770508 84.976074 L 164.442871 84.976074 Q 163.578125 84.976074 163.140381 85.279541 Q 162.702637 85.583008 162.702637 86.184570 Q 162.702637 86.727051 163.030273 87.027832 Q 163.357910 87.328613 163.937988 87.328613 Q 164.754395 87.328613 165.221680 86.761963 Q 165.688965 86.195312 165.694336 85.196289 L 165.694336 84.976074 Z M 166.687988 84.567871 L 166.687988 88.000000 L 165.694336 88.000000 L 165.694336 87.108398 Q 165.377441 87.645508 164.896729 87.900635 Q 164.416016 88.155762 163.728516 88.155762 Q 162.810059 88.155762 162.262207 87.637451 Q 161.714355 87.119141 161.714355 86.249023 Q 161.714355 85.244629 162.388428 84.723633 Q 163.062500 84.202637 164.367676 84.202637 L 165.694336 84.202637 L 165.694336 84.046875 Q 165.688965 83.327148 165.329102 83.002197 Q 164.969238 82.677246 164.179688 82.677246 Q 163.674805 82.677246 163.159180 82.822266 Q 162.643555 82.967285 162.154785 83.246582 L 162.154785 82.258301 Q 162.702637 82.048828 163.204834 81.944092 Q 163.707031 81.839355 164.179688 81.839355 Q 164.926270 81.839355 165.455322 82.059570 Q 165.984375 82.279785 166.312012 82.720215 Q 166.516113 82.988770 166.602051 83.383545 Q 166.687988 83.778320 166.687988 84.567871 Z " fill="rgb(0, 0, 0)" fill-opacity="1.000000" />
<path d="M 173.698730 87.693848 Q 173.301270 87.924805 172.879639 88.040283 Q 172.458008 88.155762 172.017578 88.155762 Q 170.621094 88.155762 169.834229 87.317871 Q 169.047363 86.479980 169.047363 84.997559 Q 169.047363 83.515137 169.834229 82.677246 Q 170.621094 81.839355 172.017578 81.839355 Q 172.452637 81.839355 172.866211 81.952148 Q 173.279785 82.064941 173.698730 82.301270 L 173.698730 83.337891 Q 173.306641 82.988770 172.911865 82.833008 Q 172.517090 82.677246 172.017578 82.677246 Q 171.088379 82.677246 170.588867 83.278809 Q 170.089355 83.880371 170.089355 84.997559 Q 170.089355 86.109375 170.591553 86.713623 Q 171.093750 87.317871 172.017578 87.317871 Q 172.533203 87.317871 172.941406 87.159424 Q 173.349609 87.000977 173.698730 86.667969 Z " fill="rgb(0, 0, 0)" fill-opacity="1.000000" />
<path d="M 176.267578 79.642578 L 177.288086 79.642578 L 177.288086 84.481934 L 179.882324 81.984375 L 181.085449 81.984375 L 178.716797 84.250977 L 181.456055 88.000000 L 180.247559 88.000000 L 178.023926 84.895508 L 177.288086 85.588379 L 177.288086 88.000000 L 176.267578 88.000000 Z " fill="rgb(0, 0, 0)" fill-opacity="1.000000" />
<path d="M 212.562012 79.202148 L 214.071289 81.221680 L 213.244141 81.221680 L 211.498535 79.202148 Z " fill="rgb(0, 150, 255)" fill-opacity="1.000000" />
<path d="M 219.878906 91.319336 L 219.878906 85.335938 L 216.892578 85.335938 L 216.892578 84.412109 L 223.729980 84.412109 L 223.729980 85.335938 L 220.738281 85.335938 L 220.738281 91.319336 Z " fill="rgb(0, 150, 255)" fill-opacity="1.000000" />
<path d="M 227.985352 79.631836 L 227.985352 82.978027 L 226.782227 82.978027 L 226.782227 79.631836 Z " fill="rgb(0, 150, 255)" fill-opacity="1.000000" />
<path d="M 436.878906 91.319336 L 436.878906 77.300781 L 437.738281 77.300781 L 437.738281 91.319336 Z " fill="rgb(0, 150, 255)" fill-opacity="1.000000" />
<path d="M 207.592285 66.116211 Q 206.877930 67.340820 206.526123 68.557373 Q 206.174316 69.773926 206.174316 71.009277 Q 206.174316 72.239258 206.526123 73.458496 Q 206.877930 74.677734 207.592285 75.913086 L 206.732910 75.913086 Q 205.921875 74.634766 205.524414 73.423584 Q 205.126953 72.212402 205.126953 71.009277 Q 205.126953 69.811523 205.524414 68.597656 Q 205.921875 67.383789 206.732910 66.116211 Z " fill="rgb(0, 150, 255)" fill-opacity="1.000000" />
<path d="M 215.763184 74.715332 Q 215.349609 74.935547 214.914551 75.045654 Q 214.479492 75.155762 213.990723 75.155762 Q 212.449219 75.155762 211.597900 74.065430 Q 210.746582 72.975098 210.746582 70.998535 Q 210.746582 69.032715 211.603271 67.934326 Q 212.459961 66.835938 213.990723 66.835938 Q 214.479492 66.835938 214.914551 66.946045 Q 215.349609 67.056152 215.763184 67.276367 L 215.763184 68.388184 Q 215.365723 68.060547 214.909180 67.888672 Q 214.452637 67.716797 213.990723 67.716797 Q 212.932617 67.716797 212.406250 68.533203 Q 211.879883 69.349609 211.879883 70.998535 Q 211.879883 72.642090 212.406250 73.458496 Q 212.932617 74.274902 213.990723 74.274902 Q 214.463379 74.274902 214.917236 74.103027 Q 215.371094 73.931152 215.763184 73.603516 Z " fill="rgb(0, 150, 255)" fill-opacity="1.000000" />
<path d="M 220.770508 71.976074 L 220.442871 71.976074 Q 219.578125 71.976074 219.140381 72.279541 Q 218.702637 72.583008 218.702637 73.184570 Q 218.702637 73.727051 219.030273 74.027832 Q 219.357910 74.328613 219.937988 74.328613 Q 220.754395 74.328613 221.221680 73.761963 Q 221.688965 73.195312 221.694336 72.196289 L 221.694336 71.976074 Z M 222.687988 71.567871 L 222.687988 75.000000 L 221.694336 75.000000 L 221.694336 74.108398 Q 221.377441 74.645508 220.896729 74.900635 Q 220.416016 75.155762 219.728516 75.155762 Q 218.810059 75.155762 218.262207 74.637451 Q 217.714355 74.119141 217.714355 73.249023 Q 217.714355 72.244629 218.388428 71.723633 Q 219.062500 71.202637 220.367676 71.202637 L 221.694336 71.202637 L 221.694336 71.046875 Q 221.688965 70.327148 221.329102 70.002197 Q 220.969238 69.677246 220.179688 69.677246 Q 219.674805 69.677246 219.159180 69.822266 Q 218.643555 69.967285 218.154785 70.246582 L 218.154785 69.258301 Q 218.702637 69.048828 219.204834 68.944092 Q 219.707031 68.839355 220.179688 68.839355 Q 220.926270 68.839355 221.455322 69.059570 Q 221.984375 69.279785 222.312012 69.720215 Q 222.516113 69.988770 222.602051 70.383545 Q 222.687988 70.778320 222.687988 71.567871 Z " fill="rgb(0, 150, 255)" fill-opacity="1.000000" />
<path d="M 227.630859 69.596680 Q 227.813477 69.209961 228.095459 69.024658 Q 228.377441 68.839355 228.774902 68.839355 Q 229.500000 68.839355 229.798096 69.400635 Q 230.096191 69.961914 230.096191 71.514160 L 230.096191 75.000000 L 229.193848 75.000000 L 229.193848 71.557129 Q 229.193848 70.284180 229.051514 69.975342 Q 228.909180 69.666504 228.533203 69.666504 Q 228.103516 69.666504 227.945068 69.996826 Q 227.786621 70.327148 227.786621 71.557129 L 227.786621 75.000000 L 226.884277 75.000000 L 226.884277 71.557129 Q 226.884277 70.268066 226.731201 69.967285 Q 226.578125 69.666504 226.180664 69.666504 Q 225.788574 69.666504 225.635498 69.996826 Q 225.482422 70.327148 225.482422 71.557129 L 225.482422 75.000000 L 224.585449 75.000000 L 224.585449 68.984375 L 225.482422 68.984375 L 225.482422 69.500000 Q 225.659668 69.177734 225.925537 69.008545 Q 226.191406 68.839355 226.529785 68.839355 Q 226.937988 68.839355 227.209229 69.027344 Q 227.480469 69.215332 227.630859 69.596680 Z " fill="rgb(0, 150, 255)" fill-opacity="1.000000" />
<path d="M 232.869141 66.116211 L 233.728516 66.116211 Q 234.539551 67.383789 234.937012 68.597656 Q 235.334473 69.811523 235.334473 71.009277 Q 235.334473 72.217773 234.937012 73.431641 Q 234.539551 74.645508 233.728516 75.913086 L 232.869141 75.913086 Q 233.583496 74.666992 233.935303 73.447754 Q 234.287109 72.228516 234.287109 71.009277 Q 234.287109 69.784668 233.935303 68.565430 Q 233.583496 67.346191 232.869141 66.116211 Z " fill="rgb(0, 150, 255)" fill-opacity="1.000000" />
<path d="M 436.878906 78.319336 L 436.878906 64.300781 L 437.738281 64.300781 L 437.738281 78.319336 Z " fill="rgb(0, 150, 255)" fill-opacity="1.000000" />
<path d="M 34.203613 57.225098 Q 33.886719 56.978027 33.559082 56.865234 Q 33.231445 56.752441 32.839355 56.752441 Q 31.915527 56.752441 31.426758 57.332520 Q 30.937988 57.912598 30.937988 59.008301 L 30.937988 62.000000 L 29.944336 62.000000 L 29.944336 55.984375 L 30.937988 55.984375 L 30.937988 57.160645 Q 31.185059 56.521484 31.697998 56.180420 Q 32.210938 55.839355 32.914551 55.839355 Q 33.279785 55.839355 33.596680 55.930664 Q 33.913574 56.021973 34.203613 56.215332 Z " fill="rgb(0, 0, 0)" fill-opacity="1.000000" />
<path d="M 41.015625 58.498047 L 41.015625 58.981445 L 36.734863 58.981445 L 36.734863 59.013672 Q 36.691895 60.243652 37.204834 60.780762 Q 37.717773 61.317871 38.652344 61.317871 Q 39.125000 61.317871 39.640625 61.167480 Q 40.156250 61.017090 40.741699 60.710938 L 40.741699 61.693848 Q 40.177734 61.924805 39.654053 62.040283 Q 39.130371 62.155762 38.641602 62.155762 Q 37.239746 62.155762 36.450195 61.315186 Q 35.660645 60.474609 35.660645 58.997559 Q 35.660645 57.558105 36.434082 56.698730 Q 37.207520 55.839355 38.496582 55.839355 Q 39.645996 55.839355 40.309326 56.618164 Q 40.972656 57.396973 41.015625 58.498047 Z M 40.027344 58.208008 Q 39.962891 57.584961 39.573486 57.131104 Q 39.184082 56.677246 38.453613 56.677246 Q 37.739258 56.677246 37.277344 57.149902 Q 36.815430 57.622559 36.772461 58.213379 Z " fill="rgb(0, 0, 0)" fill-opacity="1.000000" />
<path d="M 48.015625 58.498047 L 48.015625 58.981445 L 43.734863 58.981445 L 43.734863 59.013672 Q 43.691895 60.243652 44.204834 60.780762 Q 44.717773 61.317871 45.652344 61.317871 Q 46.125000 61.317871 46.640625 61.167480 Q 47.156250 61.017090 47.741699 60.710938 L 47.741699 61.693848 Q 47.177734 61.924805 46.654053 62.040283 Q 46.130371 62.155762 45.641602 62.155762 Q 44.239746 62.155762 43.450195 61.315186 Q 42.660645 60.474609 42.660645 58.997559 Q 42.660645 57.558105 43.434082 56.698730 Q 44.207520 55.839355 45.496582 55.839355 Q 46.645996 55.839355 47.309326 56.618164 Q 47.972656 57.396973 48.015625 58.498047 Z M 47.027344 58.208008 Q 46.962891 57.584961 46.573486 57.131104 Q 46.184082 56.677246 45.453613 56.677246 Q 44.739258 56.677246 44.277344 57.149902 Q 43.815430 57.622559 43.772461 58.213379 Z " fill="rgb(0, 0, 0)" fill-opacity="1.000000" />
<path d="M 61.435547 54.254883 L 61.435547 55.355957 Q 60.941406 55.039062 60.444580 54.877930 Q 59.947754 54.716797 59.442871 54.716797 Q 58.674805 54.716797 58.229004 55.073975 Q 57.783203 55.431152 57.783203 56.038086 Q 57.783203 56.569824 58.075928 56.849121 Q 58.368652 57.128418 59.168945 57.316406 L 59.738281 57.445312 Q 60.866211 57.708496 61.381836 58.272461 Q 61.897461 58.836426 61.897461 59.808594 Q 61.897461 60.952637 61.188477 61.554199 Q 60.479492 62.155762 59.125977 62.155762 Q 58.562012 62.155762 57.992676 62.034912 Q 57.423340 61.914062 56.848633 61.672363 L 56.848633 60.517578 Q 57.466309 60.909668 58.016846 61.092285 Q 58.567383 61.274902 59.125977 61.274902 Q 59.947754 61.274902 60.404297 60.906982 Q 60.860840 60.539062 60.860840 59.878418 Q 60.860840 59.276855 60.546631 58.959961 Q 60.232422 58.643066 59.453613 58.471191 L 58.873535 58.336914 Q 57.756348 58.084473 57.251465 57.574219 Q 56.746582 57.063965 56.746582 56.204590 Q 56.746582 55.130371 57.468994 54.483154 Q 58.191406 53.835938 59.389160 53.835938 Q 59.851074 53.835938 60.361328 53.940674 Q 60.871582 54.045410 61.435547 54.254883 Z " fill="rgb(0, 0, 0)" fill-opacity="1.000000" />
<path d="M 65.014160 61.242676 L 65.014160 64.288086 L 64.020508 64.288086 L 64.020508 55.984375 L 65.014160 55.984375 L 65.014160 56.752441 Q 65.261230 56.306641 65.672119 56.072998 Q 66.083008 55.839355 66.620117 55.839355 Q 67.710449 55.839355 68.330811 56.682617 Q 68.951172 57.525879 68.951172 59.019043 Q 68.951172 60.485352 68.328125 61.320557 Q 67.705078 62.155762 66.620117 62.155762 Q 66.072266 62.155762 65.661377 61.922119 Q 65.250488 61.688477 65.014160 61.242676 Z M 67.914551 58.997559 Q 67.914551 57.848145 67.552002 57.262695 Q 67.189453 56.677246 66.475098 56.677246 Q 65.755371 56.677246 65.384766 57.265381 Q 65.014160 57.853516 65.014160 58.997559 Q 65.014160 60.136230 65.384766 60.727051 Q 65.755371 61.317871 66.475098 61.317871 Q 67.189453 61.317871 67.552002 60.732422 Q 67.914551 60.146973 67.914551 58.997559 Z " fill="rgb(0, 0, 0)" fill-opacity="1.000000" />
<path d="M 73.770508 58.976074 L 73.442871 58.976074 Q 72.578125 58.976074 72.140381 59.279541 Q 71.702637 59.583008 71.702637 60.184570 Q 71.702637 60.727051 72.030273 61.027832 Q 72.357910 61.328613 72.937988 61.328613 Q 73.754395 61.328613 74.221680 60.761963 Q 74.688965 60.195312 74.694336 59.196289 L 74.694336 58.976074 Z M 75.687988 58.567871 L 75.687988 62.000000 L 74.694336 62.000000 L 74.694336 61.108398 Q 74.377441 61.645508 73.896729 61.900635 Q 73.416016 62.155762 72.728516 62.155762 Q 71.810059 62.155762 71.262207 61.637451 Q 70.714355 61.119141 70.714355 60.249023 Q 70.714355 59.244629 71.388428 58.723633 Q 72.062500 58.202637 73.367676 58.202637 L 74.694336 58.202637 L 74.694336 58.046875 Q 74.688965 57.327148 74.329102 57.002197 Q 73.969238 56.677246 73.179688 56.677246 Q 72.674805 56.677246 72.159180 56.822266 Q 71.643555 56.967285 71.154785 57.246582 L 71.154785 56.258301 Q 71.702637 56.048828 72.204834 55.944092 Q 72.707031 55.839355 73.179688 55.839355 Q 73.926270 55.839355 74.455322 56.059570 Q 74.984375 56.279785 75.312012 56.720215 Q 75.516113 56.988770 75.602051 57.383545 Q 75.687988 57.778320 75.687988 58.567871 Z " fill="rgb(0, 0, 0)" fill-opacity="1.000000" />
<path d="M 82.698730 61.693848 Q 82.301270 61.924805 81.879639 62.040283 Q 81.458008 62.155762 81.017578 62.155762 Q 79.621094 62.155762 78.834229 61.317871 Q 78.047363 60.479980 78.047363 58.997559 Q 78.047363 57.515137 78.834229 56.677246 Q 79.621094 55.839355 81.017578 55.839355 Q 81.452637 55.839355 81.866211 55.952148 Q 82.279785 56.064941 82.698730 56.301270 L 82.698730 57.337891 Q 82.306641 56.988770 81.911865 56.833008 Q 81.517090 56.677246 81.017578 56.677246 Q 80.088379 56.677246 79.588867 57.278809 Q 79.089355 57.880371 79.089355 58.997559 Q 79.089355 60.109375 79.591553 60.713623 Q 80.093750 61.317871 81.017578 61.317871 Q 81.533203 61.317871 81.941406 61.159424 Q 82.349609 61.000977 82.698730 60.667969 Z " fill="rgb(0, 0, 0)" fill-opacity="1.000000" />
<path d="M 90.015625 58.498047 L 90.015625 58.981445 L 85.734863 58.981445 L 85.734863 59.013672 Q 85.691895 60.243652 86.204834 60.780762 Q 86.717773 61.317871 87.652344 61.317871 Q 88.125000 61.317871 88.640625 61.167480 Q 89.156250 61.017090 89.741699 60.710938 L 89.741699 61.693848 Q 89.177734 61.924805 88.654053 62.040283 Q 88.130371 62.155762 87.641602 62.155762 Q 86.239746 62.155762 85.450195 61.315186 Q 84.660645 60.474609 84.660645 58.997559 Q 84.660645 57.558105 85.434082 56.698730 Q 86.207520 55.839355 87.496582 55.839355 Q 88.645996 55.839355 89.309326 56.618164 Q 89.972656 57.396973 90.015625 58.498047 Z M 89.027344 58.208008 Q 88.962891 57.584961 88.573486 57.131104 Q 88.184082 56.677246 87.453613 56.677246 Q 86.739258 56.677246 86.277344 57.149902 Q 85.815430 57.622559 85.772461 58.213379 Z " fill="rgb(0, 0, 0)" fill-opacity="1.000000" />
<path d="M 114.878906 65.319336 L 114.878906 51.300781 L 115.738281 51.300781 L 115.738281 58.412109 L 118.729980 58.412109 L 118.729980 59.335938 L 115.738281 59.335938 L 115.738281 65.319336 Z " fill="rgb(0, 0, 0)" fill-opacity="1.000000" />
<path d="M 118.892578 59.335938 L 118.892578 58.412109 L 125.729980 58.412109 L 125.729980 59.335938 Z " fill="rgb(0, 0, 0)" fill-opacity="1.000000" />
<path d="M 125.892578 59.335938 L 125.892578 58.412109 L 132.729980 58.412109 L 132.729980 59.335938 Z " fill="rgb(0, 0, 0)" fill-opacity="1.000000" />
<path d="M 132.892578 59.335938 L 132.892578 58.412109 L 139.729980 58.412109 L 139.729980 59.335938 Z " fill="rgb(0, 0, 0)" fill-opacity="1.000000" />
<path d="M 139.892578 59.335938 L 139.892578 58.412109 L 146.729980 58.412109 L 146.729980 59.335938 Z " fill="rgb(0, 0, 0)" fill-opacity="1.000000" />
<path d="M 146.892578 59.335938 L 146.892578 58.412109 L 153.729980 58.412109 L 153.729980 59.335938 Z " fill="rgb(0, 0, 0)" fill-opacity="1.000000" />
<path d="M 153.892578 59.335938 L 153.892578 58.412109 L 160.729980 58.412109 L 160.729980 59.335938 Z " fill="rgb(0, 0, 0)" fill-opacity="1.000000" />
<path d="M 160.892578 59.335938 L 160.892578 58.412109 L 167.729980 58.412109 L 167.729980 59.335938 Z " fill="rgb(0, 0, 0)" fill-opacity="1.000000" />
<path d="M 167.892578 59.335938 L 167.892578 58.412109 L 174.729980 58.412109 L 174.729980 59.335938 Z " fill="rgb(0, 0, 0)" fill-opacity="1.000000" />
<path d="M 174.892578 59.335938 L 174.892578 58.412109 L 181.729980 58.412109 L 181.729980 59.335938 Z " fill="rgb(0, 0, 0)" fill-opacity="1.000000" />
<path d="M 181.892578 59.335938 L 181.892578 58.412109 L 188.729980 58.412109 L 188.729980 59.335938 Z " fill="rgb(0, 0, 0)" fill-opacity="1.000000" />
<path d="M 188.892578 59.335938 L 188.892578 58.412109 L 195.729980 58.412109 L 195.729980 59.335938 Z " fill="rgb(0, 0, 0)" fill-opacity="1.000000" />
<path d="M 195.892578 59.335938 L 195.892578 58.412109 L 202.729980 58.412109 L 202.729980 59.335938 Z " fill="rgb(0, 0, 0)" fill-opacity="1.000000" />
<path d="M 202.892578 59.335938 L 202.892578 58.412109 L 209.729980 58.412109 L 209.729980 59.335938 Z " fill="rgb(0, 0, 0)" fill-opacity="1.000000" />
<path d="M 212.089355 59.830078 L 213.979980 59.830078 L 213.979980 62.000000 L 212.089355 62.000000 Z " fill="rgb(0, 150, 255)" fill-opacity="1.000000" />
<path d="M 216.892578 59.335938 L 216.892578 58.412109 L 223.729980 58.412109 L 223.729980 59.335938 Z " fill="rgb(0, 150, 255)" fill-opacity="1.000000" />
<path d="M 226.089355 59.830078 L 227.979980 59.830078 L 227.979980 62.000000 L 226.089355 62.000000 Z " fill="rgb(0, 150, 255)" fill-opacity="1.000000" />
<path d="M 288.154785 53.980957 L 289.245117 53.980957 L 289.245117 61.086914 L 293.117676 61.086914 L 293.117676 62.000000 L 288.154785 62.000000 Z " fill="rgb(0, 150, 255)" fill-opacity="1.000000" />
<path d="M 295.697266 56.005859 L 298.227051 56.005859 L 298.227051 61.231934 L 300.187500 61.231934 L 300.187500 62.000000 L 295.278320 62.000000 L 295.278320 61.231934 L 297.238770 61.231934 L 297.238770 56.773926 L 295.697266 56.773926 Z M 297.238770 53.669434 L 298.227051 53.669434 L 298.227051 54.915527 L 297.238770 54.915527 Z " fill="rgb(0, 150, 255)" fill-opacity="1.000000" />
<path d="M 301.537109 55.984375 L 302.562988 55.984375 L 304.308594 61.033203 L 306.059570 55.984375 L 307.085449 55.984375 L 304.947754 62.000000 L 303.674805 62.000000 Z " fill="rgb(0, 150, 255)" fill-opacity="1.000000" />
<path d="M 314.015625 58.498047 L 314.015625 58.981445 L 309.734863 58.981445 L 309.734863 59.013672 Q 309.691895 60.243652 310.204834 60.780762 Q 310.717773 61.317871 311.652344 61.317871 Q 312.125000 61.317871 312.640625 61.167480 Q 313.156250 61.017090 313.741699 60.710938 L 313.741699 61.693848 Q 313.177734 61.924805 312.654053 62.040283 Q 312.130371 62.155762 311.641602 62.155762 Q 310.239746 62.155762 309.450195 61.315186 Q 308.660645 60.474609 308.660645 58.997559 Q 308.660645 57.558105 309.434082 56.698730 Q 310.207520 55.839355 311.496582 55.839355 Q 312.645996 55.839355 313.309326 56.618164 Q 313.972656 57.396973 314.015625 58.498047 Z M 313.027344 58.208008 Q 312.962891 57.584961 312.573486 57.131104 Q 312.184082 56.677246 311.453613 56.677246 Q 310.739258 56.677246 310.277344 57.149902 Q 309.815430 57.622559 309.772461 58.213379 Z " fill="rgb(0, 150, 255)" fill-opacity="1.000000" />
<path d="M 324.341797 61.108398 Q 325.711426 61.108398 326.253906 60.434326 Q 326.796387 59.760254 326.796387 57.998535 Q 326.796387 56.220703 326.256592 55.546631 Q 325.716797 54.872559 324.341797 54.872559 L 323.826172 54.872559 L 323.826172 61.108398 Z M 324.363281 53.980957 Q 326.200195 53.980957 327.070312 54.958496 Q 327.940430 55.936035 327.940430 57.998535 Q 327.940430 60.050293 327.070312 61.025146 Q 326.200195 62.000000 324.363281 62.000000 L 322.735840 62.000000 L 322.735840 53.980957 Z " fill="rgb(0, 150, 255)" fill-opacity="1.000000" />
<path d="M 335.015625 58.498047 L 335.015625 58.981445 L 330.734863 58.981445 L 330.734863 59.013672 Q 330.691895 60.243652 331.204834 60.780762 Q 331.717773 61.317871 332.652344 61.317871 Q 333.125000 61.317871 333.640625 61.167480 Q 334.156250 61.017090 334.741699 60.710938 L 334.741699 61.693848 Q 334.177734 61.924805 333.654053 62.040283 Q 333.130371 62.155762 332.641602 62.155762 Q 331.239746 62.155762 330.450195 61.315186 Q 329.660645 60.474609 329.660645 58.997559 Q 329.660645 57.558105 330.434082 56.698730 Q 331.207520 55.839355 332.496582 55.839355 Q 333.645996 55.839355 334.309326 56.618164 Q 334.972656 57.396973 335.015625 58.498047 Z M 334.027344 58.208008 Q 333.962891 57.584961 333.573486 57.131104 Q 333.184082 56.677246 332.453613 56.677246 Q 331.739258 56.677246 331.277344 57.149902 Q 330.815430 57.622559 330.772461 58.213379 Z " fill="rgb(0, 150, 255)" fill-opacity="1.000000" />
<path d="M 341.226074 56.193848 L 341.226074 57.160645 Q 340.801758 56.913574 340.372070 56.790039 Q 339.942383 56.666504 339.496582 56.666504 Q 338.825195 56.666504 338.494873 56.884033 Q 338.164551 57.101562 338.164551 57.547363 Q 338.164551 57.950195 338.411621 58.148926 Q 338.658691 58.347656 339.641602 58.535645 L 340.039062 58.610840 Q 340.774902 58.750488 341.153564 59.169434 Q 341.532227 59.588379 341.532227 60.259766 Q 341.532227 61.151367 340.898438 61.653564 Q 340.264648 62.155762 339.136719 62.155762 Q 338.690918 62.155762 338.202148 62.061768 Q 337.713379 61.967773 337.144043 61.779785 L 337.144043 60.759277 Q 337.697266 61.043945 338.202148 61.186279 Q 338.707031 61.328613 339.158203 61.328613 Q 339.813477 61.328613 340.173340 61.062744 Q 340.533203 60.796875 340.533203 60.318848 Q 340.533203 59.631348 339.217285 59.368164 L 339.174316 59.357422 L 338.803711 59.282227 Q 337.949707 59.115723 337.557617 58.720947 Q 337.165527 58.326172 337.165527 57.644043 Q 337.165527 56.779297 337.750977 56.309326 Q 338.336426 55.839355 339.421387 55.839355 Q 339.904785 55.839355 340.350586 55.927979 Q 340.796387 56.016602 341.226074 56.193848 Z " fill="rgb(0, 150, 255)" fill-opacity="1.000000" />
<path d="M 344.267578 53.642578 L 345.288086 53.642578 L 345.288086 58.481934 L 347.882324 55.984375 L 349.085449 55.984375 L 346.716797 58.250977 L 349.456055 62.000000 L 348.247559 62.000000 L 346.023926 58.895508 L 345.288086 59.588379 L 345.288086 62.000000 L 344.267578 62.000000 Z " fill="rgb(0, 150, 255)" fill-opacity="1.000000" />
<path d="M 353.297852 54.276367 L 353.297852 55.984375 L 355.542969 55.984375 L 355.542969 56.752441 L 353.297852 56.752441 L 353.297852 60.018066 Q 353.297852 60.684082 353.550293 60.947266 Q 353.802734 61.210449 354.431152 61.210449 L 355.542969 61.210449 L 355.542969 62.000000 L 354.334473 62.000000 Q 353.222656 62.000000 352.766113 61.554199 Q 352.309570 61.108398 352.309570 60.018066 L 352.309570 56.752441 L 350.703613 56.752441 L 350.703613 55.984375 L 352.309570 55.984375 L 352.309570 54.276367 Z " fill="rgb(0, 150, 255)" fill-opacity="1.000000" />
<path d="M 360.308594 56.677246 Q 359.556641 56.677246 359.169922 57.262695 Q 358.783203 57.848145 358.783203 58.997559 Q 358.783203 60.141602 359.169922 60.729736 Q 359.556641 61.317871 360.308594 61.317871 Q 361.065918 61.317871 361.452637 60.729736 Q 361.839355 60.141602 361.839355 58.997559 Q 361.839355 57.848145 361.452637 57.262695 Q 361.065918 56.677246 360.308594 56.677246 Z M 360.308594 55.839355 Q 361.560059 55.839355 362.223389 56.650391 Q 362.886719 57.461426 362.886719 58.997559 Q 362.886719 60.539062 362.226074 61.347412 Q 361.565430 62.155762 360.308594 62.155762 Q 359.057129 62.155762 358.396484 61.347412 Q 357.735840 60.539062 357.735840 58.997559 Q 357.735840 57.461426 358.396484 56.650391 Q 359.057129 55.839355 360.308594 55.839355 Z " fill="rgb(0, 150, 255)" fill-opacity="1.000000" />
<path d="M 366.014160 61.242676 L 366.014160 64.288086 L 365.020508 64.288086 L 365.020508 55.984375 L 366.014160 55.984375 L 366.014160 56.752441 Q 366.261230 56.306641 366.672119 56.072998 Q 367.083008 55.839355 367.620117 55.839355 Q 368.710449 55.839355 369.330811 56.682617 Q 369.951172 57.525879 369.951172 59.019043 Q 369.951172 60.485352 369.328125 61.320557 Q 368.705078 62.155762 367.620117 62.155762 Q 367.072266 62.155762 366.661377 61.922119 Q 366.250488 61.688477 366.014160 61.242676 Z M 368.914551 58.997559 Q 368.914551 57.848145 368.552002 57.262695 Q 368.189453 56.677246 367.475098 56.677246 Q 366.755371 56.677246 366.384766 57.265381 Q 366.014160 57.853516 366.014160 58.997559 Q 366.014160 60.136230 366.384766 60.727051 Q 366.755371 61.317871 367.475098 61.317871 Q 368.189453 61.317871 368.552002 60.732422 Q 368.914551 60.146973 368.914551 58.997559 Z " fill="rgb(0, 150, 255)" fill-opacity="1.000000" />
<path d="M 436.878906 65.319336 L 436.878906 51.300781 L 437.738281 51.300781 L 437.738281 65.319336 Z " fill="rgb(0, 150, 255)" fill-opacity="1.000000" />
<path d="M 114.878906 26.319336 L 114.878906 12.300781 L 115.738281 12.300781 L 115.738281 26.319336 Z " fill="rgb(0, 0, 0)" fill-opacity="1.000000" />
<path d="M 114.878906 39.319336 L 114.878906 25.300781 L 115.738281 25.300781 L 115.738281 39.319336 Z " fill="rgb(0, 0, 0)" fill-opacity="1.000000" />
<path d="M 114.878906 52.319336 L 114.878906 38.300781 L 115.738281 38.300781 L 115.738281 52.319336 Z " fill="rgb(0, 0, 0)" fill-opacity="1.000000" />
<path d="M 158.860840 31.998535 Q 158.860840 30.231445 158.498291 29.474121 Q 158.135742 28.716797 157.308594 28.716797 Q 156.486816 28.716797 156.124268 29.474121 Q 155.761719 30.231445 155.761719 31.998535 Q 155.761719 33.760254 156.124268 34.517578 Q 156.486816 35.274902 157.308594 35.274902 Q 158.135742 35.274902 158.498291 34.520264 Q 158.860840 33.765625 158.860840 31.998535 Z M 159.994141 31.998535 Q 159.994141 34.093262 159.330811 35.124512 Q 158.667480 36.155762 157.308594 36.155762 Q 155.949707 36.155762 155.289062 35.129883 Q 154.628418 34.104004 154.628418 31.998535 Q 154.628418 29.898438 155.291748 28.867188 Q 155.955078 27.835938 157.308594 27.835938 Q 158.667480 27.835938 159.330811 28.867188 Q 159.994141 29.898438 159.994141 31.998535 Z " fill="rgb(0, 0, 0)" fill-opacity="1.000000" />
<path d="M 212.878906 52.319336 L 212.878906 38.300781 L 213.738281 38.300781 L 213.738281 52.319336 Z " fill="rgb(0, 0, 0)" fill-opacity="1.000000" />
<path d="M 226.878906 52.319336 L 226.878906 38.300781 L 227.738281 38.300781 L 227.738281 52.319336 Z " fill="rgb(0, 150, 255)" fill-opacity="1.000000" />
<path d="M 436.878906 52.319336 L 436.878906 38.300781 L 437.738281 38.300781 L 437.738281 52.319336 Z " fill="rgb(0, 150, 255)" fill-opacity="1.000000" />
<path d="M 162.981934 31.955566 L 162.981934 35.108398 L 164.265625 35.108398 Q 165.210938 35.108398 165.613770 34.778076 Q 166.016602 34.447754 166.016602 33.690430 Q 166.016602 32.691406 165.592285 32.323486 Q 165.167969 31.955566 164.265625 31.955566 Z M 162.981934 28.872559 L 162.981934 31.074707 L 164.244141 31.074707 Q 165.028320 31.074707 165.380127 30.773926 Q 165.731934 30.473145 165.731934 30.016602 Q 165.731934 29.409668 165.385498 29.141113 Q 165.039062 28.872559 164.244141 28.872559 Z M 161.891602 27.980957 L 164.265625 27.980957 Q 165.495605 27.980957 166.161621 28.512695 Q 166.827637 29.044434 166.827637 30.016602 Q 166.827637 30.537598 166.475830 30.961914 Q 166.124023 31.386230 165.420410 31.493652 Q 166.209961 31.611816 166.658447 32.167725 Q 167.106934 32.723633 167.106934 33.797852 Q 167.106934 34.888184 166.392578 35.444092 Q 165.678223 36.000000 164.265625 36.000000 L 161.891602 36.000000 Z " fill="rgb(0, 0, 0)" fill-opacity="1.000000" />
<path d="M 173.435547 28.254883 L 173.435547 29.355957 Q 172.941406 29.039062 172.444580 28.877930 Q 171.947754 28.716797 171.442871 28.716797 Q 170.674805 28.716797 170.229004 29.073975 Q 169.783203 29.431152 169.783203 30.038086 Q 169.783203 30.569824 170.075928 30.849121 Q 170.368652 31.128418 171.168945 31.316406 L 171.738281 31.445312 Q 172.866211 31.708496 173.381836 32.272461 Q 173.897461 32.836426 173.897461 33.808594 Q 173.897461 34.952637 173.188477 35.554199 Q 172.479492 36.155762 171.125977 36.155762 Q 170.562012 36.155762 169.992676 36.034912 Q 169.423340 35.914062 168.848633 35.672363 L 168.848633 34.517578 Q 169.466309 34.909668 170.016846 35.092285 Q 170.567383 35.274902 171.125977 35.274902 Q 171.947754 35.274902 172.404297 34.906982 Q 172.860840 34.539062 172.860840 33.878418 Q 172.860840 33.276855 172.546631 32.959961 Q 172.232422 32.643066 171.453613 32.471191 L 170.873535 32.336914 Q 169.756348 32.084473 169.251465 31.574219 Q 168.746582 31.063965 168.746582 30.204590 Q 168.746582 29.130371 169.468994 28.483154 Q 170.191406 27.835938 171.389160 27.835938 Q 171.851074 27.835938 172.361328 27.940674 Q 172.871582 28.045410 173.435547 28.254883 Z " fill="rgb(0, 0, 0)" fill-opacity="1.000000" />
<path d="M 212.878906 39.319336 L 212.878906 25.300781 L 213.738281 25.300781 L 213.738281 39.319336 Z " fill="rgb(0, 0, 0)" fill-opacity="1.000000" />
<path d="M 226.878906 39.319336 L 226.878906 25.300781 L 227.738281 25.300781 L 227.738281 39.319336 Z " fill="rgb(0, 150, 255)" fill-opacity="1.000000" />
<path d="M 436.878906 39.319336 L 436.878906 25.300781 L 437.738281 25.300781 L 437.738281 39.319336 Z " fill="rgb(0, 150, 255)" fill-opacity="1.000000" />
<path d="M 212.878906 26.319336 L 212.878906 12.300781 L 213.738281 12.300781 L 213.738281 26.319336 Z " fill="rgb(0, 0, 0)" fill-opacity="1.000000" />
<path d="M 226.878906 26.319336 L 226.878906 12.300781 L 227.738281 12.300781 L 227.738281 26.319336 Z " fill="rgb(0, 150, 255)" fill-opacity="1.000000" />
<path d="M 436.878906 26.319336 L 436.878906 12.300781 L 437.738281 12.300781 L 437.738281 26.319336 Z " fill="rgb(0, 150, 255)" fill-opacity="1.000000" />
<path d="M 6.892578 7.335938 L 6.892578 6.412109 L 13.729980 6.412109 L 13.729980 7.335938 Z " fill="rgb(0, 0, 0)" fill-opacity="1.000000" />
<path d="M 13.892578 7.335938 L 13.892578 6.412109 L 20.729980 6.412109 L 20.729980 7.335938 Z " fill="rgb(0, 0, 0)" fill-opacity="1.000000" />
<path d="M 20.892578 7.335938 L 20.892578 6.412109 L 27.729980 6.412109 L 27.729980 7.335938 Z " fill="rgb(0, 0, 0)" fill-opacity="1.000000" />
<path d="M 27.892578 7.335938 L 27.892578 6.412109 L 34.729980 6.412109 L 34.729980 7.335938 Z " fill="rgb(0, 0, 0)" fill-opacity="1.000000" />
<path d="M 34.892578 7.335938 L 34.892578 6.412109 L 41.729980 6.412109 L 41.729980 7.335938 Z " fill="rgb(0, 0, 0)" fill-opacity="1.000000" />
<path d="M 41.892578 7.335938 L 41.892578 6.412109 L 48.729980 6.412109 L 48.729980 7.335938 Z " fill="rgb(0, 0, 0)" fill-opacity="1.000000" />
<path d="M 48.892578 7.335938 L 48.892578 6.412109 L 55.729980 6.412109 L 55.729980 7.335938 Z " fill="rgb(0, 0, 0)" fill-opacity="1.000000" />
<path d="M 55.892578 7.335938 L 55.892578 6.412109 L 62.729980 6.412109 L 62.729980 7.335938 Z " fill="rgb(0, 0, 0)" fill-opacity="1.000000" />
<path d="M 62.892578 7.335938 L 62.892578 6.412109 L 69.729980 6.412109 L 69.729980 7.335938 Z " fill="rgb(0, 0, 0)" fill-opacity="1.000000" />
<path d="M 69.892578 7.335938 L 69.892578 6.412109 L 76.729980 6.412109 L 76.729980 7.335938 Z " fill="rgb(0, 0, 0)" fill-opacity="1.000000" />
<path d="M 76.892578 7.335938 L 76.892578 6.412109 L 83.729980 6.412109 L 83.729980 7.335938 Z " fill="rgb(0, 0, 0)" fill-opacity="1.000000" />
<path d="M 83.892578 7.335938 L 83.892578 6.412109 L 90.729980 6.412109 L 90.729980 7.335938 Z " fill="rgb(0, 0, 0)" fill-opacity="1.000000" />
<path d="M 90.892578 7.335938 L 90.892578 6.412109 L 97.729980 6.412109 L 97.729980 7.335938 Z " fill="rgb(0, 0, 0)" fill-opacity="1.000000" />
<path d="M 97.892578 7.335938 L 97.892578 6.412109 L 104.729980 6.412109 L 104.729980 7.335938 Z " fill="rgb(0, 0, 0)" fill-opacity="1.000000" />
<path d="M 104.892578 7.335938 L 104.892578 6.412109 L 111.729980 6.412109 L 111.729980 7.335938 Z " fill="rgb(0, 0, 0)" fill-opacity="1.000000" />
<path d="M 114.878906 13.319336 L 114.878906 7.335938 L 111.892578 7.335938 L 111.892578 6.412109 L 118.729980 6.412109 L 118.729980 7.335938 L 115.738281 7.335938 L 115.738281 13.319336 Z " fill="rgb(0, 0, 0)" fill-opacity="1.000000" />
<path d="M 118.892578 7.335938 L 118.892578 6.412109 L 125.729980 6.412109 L 125.729980 7.335938 Z " fill="rgb(0, 0, 0)" fill-opacity="1.000000" />
<path d="M 125.892578 7.335938 L 125.892578 6.412109 L 132.729980 6.412109 L 132.729980 7.335938 Z " fill="rgb(0, 0, 0)" fill-opacity="1.000000" />
<path d="M 132.892578 7.335938 L 132.892578 6.412109 L 139.729980 6.412109 L 139.729980 7.335938 Z " fill="rgb(0, 0, 0)" fill-opacity="1.000000" />
<path d="M 139.892578 7.335938 L 139.892578 6.412109 L 146.729980 6.412109 L 146.729980 7.335938 Z " fill="rgb(0, 0, 0)" fill-opacity="1.000000" />
<path d="M 146.892578 7.335938 L 146.892578 6.412109 L 153.729980 6.412109 L 153.729980 7.335938 Z " fill="rgb(0, 0, 0)" fill-opacity="1.000000" />
<path d="M 153.892578 7.335938 L 153.892578 6.412109 L 160.729980 6.412109 L 160.729980 7.335938 Z " fill="rgb(0, 0, 0)" fill-opacity="1.000000" />
<path d="M 160.892578 7.335938 L 160.892578 6.412109 L 167.729980 6.412109 L 167.729980 7.335938 Z " fill="rgb(0, 0, 0)" fill-opacity="1.000000" />
<path d="M 167.892578 7.335938 L 167.892578 6.412109 L 174.729980 6.412109 L 174.729980 7.335938 Z " fill="rgb(0, 0, 0)" fill-opacity="1.000000" />
<path d="M 174.892578 7.335938 L 174.892578 6.412109 L 181.729980 6.412109 L 181.729980 7.335938 Z " fill="rgb(0, 0, 0)" fill-opacity="1.000000" />
<path d="M 181.892578 7.335938 L 181.892578 6.412109 L 188.729980 6.412109 L 188.729980 7.335938 Z " fill="rgb(0, 0, 0)" fill-opacity="1.000000" />
<path d="M 188.892578 7.335938 L 188.892578 6.412109 L 195.729980 6.412109 L 195.729980 7.335938 Z " fill="rgb(0, 0, 0)" fill-opacity="1.000000" />
<path d="M 195.892578 7.335938 L 195.892578 6.412109 L 202.729980 6.412109 L 202.729980 7.335938 Z " fill="rgb(0, 0, 0)" fill-opacity="1.000000" />
<path d="M 202.892578 7.335938 L 202.892578 6.412109 L 209.729980 6.412109 L 209.729980 7.335938 Z " fill="rgb(0, 0, 0)" fill-opacity="1.000000" />
<path d="M 212.878906 13.319336 L 212.878906 7.335938 L 209.892578 7.335938 L 209.892578 6.412109 L 213.738281 6.412109 L 213.738281 13.319336 Z " fill="rgb(0, 0, 0)" fill-opacity="1.000000" />
<path d="M 226.878906 13.319336 L 226.878906 6.412109 L 230.729980 6.412109 L 230.729980 7.335938 L 227.738281 7.335938 L 227.738281 13.319336 Z " fill="rgb(0, 150, 255)" fill-opacity="1.000000" />
<path d="M 230.892578 7.335938 L 230.892578 6.412109 L 237.729980 6.412109 L 237.729980 7.335938 Z " fill="rgb(0, 150, 255)" fill-opacity="1.000000" />
<path d="M 237.892578 7.335938 L 237.892578 6.412109 L 244.729980 6.412109 L 244.729980 7.335938 Z " fill="rgb(0, 150, 255)" fill-opacity="1.000000" />
<path d="M 244.892578 7.335938 L 244.892578 6.412109 L 251.729980 6.412109 L 251.729980 7.335938 Z " fill="rgb(0, 150, 255)" fill-opacity="1.000000" />
<path d="M 251.892578 7.335938 L 251.892578 6.412109 L 258.729980 6.412109 L 258.729980 7.335938 Z " fill="rgb(0, 150, 255)" fill-opacity="1.000000" />
<path d="M 258.892578 7.335938 L 258.892578 6.412109 L 265.729980 6.412109 L 265.729980 7.335938 Z " fill="rgb(0, 150, 255)" fill-opacity="1.000000" />
<path d="M 265.892578 7.335938 L 265.892578 6.412109 L 272.729980 6.412109 L 272.729980 7.335938 Z " fill="rgb(0, 150, 255)" fill-opacity="1.000000" />
<path d="M 272.892578 7.335938 L 272.892578 6.412109 L 279.729980 6.412109 L 279.729980 7.335938 Z " fill="rgb(0, 150, 255)" fill-opacity="1.000000" />
<path d="M 279.892578 7.335938 L 279.892578 6.412109 L 286.729980 6.412109 L 286.729980 7.335938 Z " fill="rgb(0, 150, 255)" fill-opacity="1.000000" />
<path d="M 286.892578 7.335938 L 286.892578 6.412109 L 293.729980 6.412109 L 293.729980 7.335938 Z " fill="rgb(0, 150, 255)" fill-opacity="1.000000" />
<path d="M 293.892578 7.335938 L 293.892578 6.412109 L 300.729980 6.412109 L 300.729980 7.335938 Z " fill="rgb(0, 150, 255)" fill-opacity="1.000000" />
<path d="M 300.892578 7.335938 L 300.892578 6.412109 L 307.729980 6.412109 L 307.729980 7.335938 Z " fill="rgb(0, 150, 255)" fill-opacity="1.000000" />
<path d="M 307.892578 7.335938 L 307.892578 6.412109 L 314.729980 6.412109 L 314.729980 7.335938 Z " fill="rgb(0, 150, 255)" fill-opacity="1.000000" />
<path d="M 314.892578 7.335938 L 314.892578 6.412109 L 321.729980 6.412109 L 321.729980 7.335938 Z " fill="rgb(0, 150, 255)" fill-opacity="1.000000" />
<path d="M 321.892578 7.335938 L 321.892578 6.412109 L 328.729980 6.412109 L 328.729980 7.335938 Z " fill="rgb(0, 150, 255)" fill-opacity="1.000000" />
<path d="M 328.892578 7.335938 L 328.892578 6.412109 L 335.729980 6.412109 L 335.729980 7.335938 Z " fill="rgb(0, 150, 255)" fill-opacity="1.000000" />
<path d="M 335.892578 7.335938 L 335.892578 6.412109 L 342.729980 6.412109 L 342.729980 7.335938 Z " fill="rgb(0, 150, 255)" fill-opacity="1.000000" />
<path d="M 342.892578 7.335938 L 342.892578 6.412109 L 349.729980 6.412109 L 349.729980 7.335938 Z " fill="rgb(0, 150, 255)" fill-opacity="1.000000" />
<path d="M 349.892578 7.335938 L 349.892578 6.412109 L 356.729980 6.412109 L 356.729980 7.335938 Z " fill="rgb(0, 150, 255)" fill-opacity="1.000000" />
<path d="M 356.892578 7.335938 L 356.892578 6.412109 L 363.729980 6.412109 L 363.729980 7.335938 Z " fill="rgb(0, 150, 255)" fill-opacity="1.000000" />
<path d="M 363.892578 7.335938 L 363.892578 6.412109 L 370.729980 6.412109 L 370.729980 7.335938 Z " fill="rgb(0, 150, 255)" fill-opacity="1.000000" />
<path d="M 370.892578 7.335938 L 370.892578 6.412109 L 377.729980 6.412109 L 377.729980 7.335938 Z " fill="rgb(0, 150, 255)" fill-opacity="1.000000" />
<path d="M 377.892578 7.335938 L 377.892578 6.412109 L 384.729980 6.412109 L 384.729980 7.335938 Z " fill="rgb(0, 150, 255)" fill-opacity="1.000000" />
<path d="M 384.892578 7.335938 L 384.892578 6.412109 L 391.729980 6.412109 L 391.729980 7.335938 Z " fill="rgb(0, 150, 255)" fill-opacity="1.000000" />
<path d="M 391.892578 7.335938 L 391.892578 6.412109 L 398.729980 6.412109 L 398.729980 7.335938 Z " fill="rgb(0, 150, 255)" fill-opacity="1.000000" />
<path d="M 398.892578 7.335938 L 398.892578 6.412109 L 405.729980 6.412109 L 405.729980 7.335938 Z " fill="rgb(0, 150, 255)" fill-opacity="1.000000" />
<path d="M 405.892578 7.335938 L 405.892578 6.412109 L 412.729980 6.412109 L 412.729980 7.335938 Z " fill="rgb(0, 150, 255)" fill-opacity="1.000000" />
<path d="M 412.892578 7.335938 L 412.892578 6.412109 L 419.729980 6.412109 L 419.729980 7.335938 Z " fill="rgb(0, 150, 255)" fill-opacity="1.000000" />
<path d="M 419.892578 7.335938 L 419.892578 6.412109 L 426.729980 6.412109 L 426.729980 7.335938 Z " fill="rgb(0, 150, 255)" fill-opacity="1.000000" />
<path d="M 426.892578 7.335938 L 426.892578 6.412109 L 433.729980 6.412109 L 433.729980 7.335938 Z " fill="rgb(0, 150, 255)" fill-opacity="1.000000" />
<path d="M 436.878906 13.319336 L 436.878906 7.335938 L 433.892578 7.335938 L 433.892578 6.412109 L 437.738281 6.412109 L 437.738281 13.319336 Z " fill="rgb(0, 150, 255)" fill-opacity="1.000000" />
</svg>